<svg width="486" height="248" viewBox="0 0 486 248" fill="none" xmlns="http://www.w3.org/2000/svg">
<path d="M73.4099 234.041C73.4099 234.041 70.9653 239.36 68.9804 240.852C66.9706 239.356 64.4781 234.041 64.4781 234.041C64.4781 234.041 62.0335 239.36 60.0486 240.852C58.0388 239.356 55.5463 234.041 55.5463 234.041C55.5463 234.041 48.6034 241.136 48.6226 244.496C48.6231 244.58 48.6278 244.664 48.6368 244.747C48.8738 246.947 56.052 247.507 59.9953 246.471C62.9348 247.141 65.9876 247.141 68.9271 246.471C72.8536 247.524 80.1778 246.92 80.3918 244.695C80.3999 244.612 80.4037 244.528 80.4032 244.444C80.384 241.084 73.4099 234.041 73.4099 234.041Z" fill="#FFC700"/>
<path d="M219.27 234.041C219.27 234.041 216.826 239.36 214.841 240.852C212.831 239.356 210.338 234.041 210.338 234.041C210.338 234.041 207.894 239.36 205.909 240.852C203.899 239.356 201.407 234.041 201.407 234.041C201.407 234.041 194.464 241.136 194.483 244.496C194.483 244.58 194.488 244.664 194.497 244.747C194.734 246.947 201.912 247.507 205.856 246.471C208.795 247.141 211.848 247.141 214.787 246.471C218.714 247.524 226.038 246.92 226.252 244.695C226.26 244.612 226.264 244.528 226.263 244.444C226.244 241.084 219.27 234.041 219.27 234.041Z" fill="#575658"/>
<path d="M364.186 234.041C364.186 234.041 361.742 239.36 359.757 240.852C357.747 239.356 355.255 234.041 355.255 234.041C355.255 234.041 352.81 239.36 350.825 240.852C348.815 239.356 346.323 234.041 346.323 234.041C346.323 234.041 339.38 241.136 339.399 244.496C339.4 244.58 339.404 244.664 339.413 244.747C339.65 246.947 346.828 247.507 350.772 246.471C353.711 247.141 356.764 247.141 359.704 246.471C363.63 247.524 370.954 246.92 371.168 244.695C371.176 244.612 371.18 244.528 371.18 244.444C371.161 241.084 364.186 234.041 364.186 234.041Z" fill="#FFC700"/>
<path d="M130.532 207.115H44.4641V210.282H130.532V207.115Z" fill="#F2F2F2"/>
<path d="M325.371 207.115H239.304V210.282H325.371V207.115Z" fill="#F2F2F2"/>
<path d="M457.905 207.115H371.837V210.282H457.905V207.115Z" fill="#F2F2F2"/>
<path d="M458.409 159.146C457.617 159.555 456.881 160.063 456.219 160.659C455.545 160.06 454.797 159.552 453.993 159.146C453.201 159.555 452.465 160.063 451.802 160.659C451.129 160.06 450.381 159.552 449.576 159.146C449.576 159.146 446.143 160.833 446.153 162.896C446.153 162.947 446.155 162.999 446.16 163.05C446.277 164.4 449.826 164.744 451.776 164.108C453.219 164.519 454.749 164.519 456.192 164.108C458.134 164.754 461.755 164.384 461.861 163.018C461.865 162.967 461.867 162.916 461.867 162.864C461.857 160.802 458.409 159.146 458.409 159.146Z" fill="#F2F2F2"/>
<path d="M3.68137 88.202L0.635742 85.7667L17.6892 70.5466H60.932V83.9404L32.9158 102.813L3.68137 88.202Z" fill="#575658"/>
<path d="M68.8164 79.084V70.8506H63.0753V72.8669L60.932 70.5466L46.9242 85.7667L41.4428 89.4197L32.9432 151.491L45.7609 164.304H75.5498V86.3758L68.8164 79.084Z" fill="#CCCCCC"/>
<path d="M46.924 85.7668H0.635864V164.304H46.924V85.7668Z" fill="#F2F2F2"/>
<path d="M27.1298 145.126H18.603V164.304H27.1298V145.126Z" fill="#CCCCCC"/>
<path d="M9.46742 150.605V147.562H5.81299V150.605H9.16275H9.46742Z" fill="#575658"/>
<path d="M9.16275 153.041H5.81299V156.085H9.46742V153.041H9.16275Z" fill="#575658"/>
<path d="M15.5576 147.562H11.9033V150.606H15.5576V147.562Z" fill="#575658"/>
<path d="M15.5576 153.041H11.9033V156.085H15.5576V153.041Z" fill="#575658"/>
<path d="M34.4386 150.605V147.562H30.7842V150.605H34.1339H34.4386Z" fill="#575658"/>
<path d="M34.1339 153.041H30.7842V156.085H34.4386V153.041H34.1339Z" fill="#575658"/>
<path d="M40.529 147.562H36.8746V150.606H40.529V147.562Z" fill="#575658"/>
<path d="M40.529 153.041H36.8746V156.085H40.529V153.041Z" fill="#575658"/>
<path d="M60.0186 89.7241V86.6797H56.3641V89.7241H59.7144H60.0186Z" fill="#575658"/>
<path d="M59.7144 92.1597H56.3641V95.2036H60.0186V92.1597H59.7144Z" fill="#575658"/>
<path d="M66.1092 86.6802H62.4548V89.7243H66.1092V86.6802Z" fill="#575658"/>
<path d="M66.1092 92.1594H62.4548V95.2035H66.1092V92.1594Z" fill="#575658"/>
<path d="M60.0186 106.771V103.727H56.3641V106.771H59.7144H60.0186Z" fill="#575658"/>
<path d="M59.7144 109.206H56.3641V112.25H60.0186V109.206H59.7144Z" fill="#575658"/>
<path d="M66.1092 103.727H62.4548V106.771H66.1092V103.727Z" fill="#575658"/>
<path d="M66.1092 109.206H62.4548V112.25H66.1092V109.206Z" fill="#575658"/>
<path d="M60.0186 123.818V120.774H56.3641V123.818H59.7144H60.0186Z" fill="#575658"/>
<path d="M59.7144 126.253H56.3641V129.297H60.0186V126.253H59.7144Z" fill="#575658"/>
<path d="M66.1092 120.774H62.4548V123.818H66.1092V120.774Z" fill="#575658"/>
<path d="M66.1092 126.253H62.4548V129.297H66.1092V126.253Z" fill="#575658"/>
<path d="M60.0186 140.865V137.821H56.3641V140.865H59.7144H60.0186Z" fill="#575658"/>
<path d="M59.7144 143.3H56.3641V146.344H60.0186V143.3H59.7144Z" fill="#575658"/>
<path d="M66.1092 137.821H62.4548V140.865H66.1092V137.821Z" fill="#575658"/>
<path d="M66.1092 143.3H62.4548V146.344H66.1092V143.3Z" fill="#575658"/>
<path d="M41.138 89.7241H5.81287V97.0299H41.138V89.7241Z" fill="#575658"/>
<path d="M41.138 104.336H5.81287V111.641H41.138V104.336Z" fill="#575658"/>
<path d="M41.138 118.947H5.81287V126.253H41.138V118.947Z" fill="#575658"/>
<path d="M41.138 133.559H5.81287V140.865H41.138V133.559Z" fill="#575658"/>
<path d="M72.9748 159.587C72.1832 159.996 71.4472 160.505 70.7846 161.1C70.1111 160.502 69.3628 159.993 68.5584 159.587C67.7668 159.996 67.0308 160.505 66.3682 161.1C65.6947 160.502 64.9464 159.993 64.142 159.587C64.142 159.587 60.709 161.275 60.7185 163.337C60.7187 163.389 60.7211 163.44 60.7256 163.491C60.8427 164.842 64.3921 165.186 66.3419 164.549C67.7852 164.961 69.3149 164.961 70.7582 164.549C72.6997 165.196 76.3212 164.825 76.4271 163.46C76.431 163.408 76.4329 163.357 76.4327 163.306C76.4232 161.243 72.9748 159.587 72.9748 159.587Z" fill="#FFC700"/>
<path d="M57.1197 88.202L54.0741 85.7667L71.1276 70.5466H114.37V83.9404L86.3541 102.813L57.1197 88.202Z" fill="#575658"/>
<path d="M122.255 79.084V70.8506H116.514V72.8669L114.37 70.5466L100.363 85.7667L94.8811 89.4197L86.3816 151.491L99.1993 164.304H128.988V86.3758L122.255 79.084Z" fill="#CCCCCC"/>
<path d="M100.362 85.7668H54.0742V164.304H100.362V85.7668Z" fill="#F2F2F2"/>
<path d="M80.5681 145.126H72.0414V164.304H80.5681V145.126Z" fill="#CCCCCC"/>
<path d="M62.9058 150.605V147.562H59.2513V150.605H62.6011H62.9058Z" fill="#575658"/>
<path d="M62.6011 153.041H59.2513V156.085H62.9058V153.041H62.6011Z" fill="#575658"/>
<path d="M68.9961 147.562H65.3418V150.606H68.9961V147.562Z" fill="#575658"/>
<path d="M68.9961 153.041H65.3418V156.085H68.9961V153.041Z" fill="#575658"/>
<path d="M87.877 150.605V147.562H84.2225V150.605H87.5723H87.877Z" fill="#575658"/>
<path d="M87.5723 153.041H84.2225V156.085H87.877V153.041H87.5723Z" fill="#575658"/>
<path d="M93.9673 147.562H90.313V150.606H93.9673V147.562Z" fill="#575658"/>
<path d="M93.9673 153.041H90.313V156.085H93.9673V153.041Z" fill="#575658"/>
<path d="M113.457 89.7241V86.6797H109.802V89.7241H113.153H113.457Z" fill="#575658"/>
<path d="M113.153 92.1597H109.802V95.2036H113.457V92.1597H113.153Z" fill="#575658"/>
<path d="M119.548 86.6802H115.893V89.7243H119.548V86.6802Z" fill="#575658"/>
<path d="M119.548 92.1594H115.893V95.2035H119.548V92.1594Z" fill="#575658"/>
<path d="M113.457 106.771V103.727H109.802V106.771H113.153H113.457Z" fill="#575658"/>
<path d="M113.153 109.206H109.802V112.25H113.457V109.206H113.153Z" fill="#575658"/>
<path d="M119.548 103.727H115.893V106.771H119.548V103.727Z" fill="#575658"/>
<path d="M119.548 109.206H115.893V112.25H119.548V109.206Z" fill="#575658"/>
<path d="M113.457 123.818V120.774H109.802V123.818H113.153H113.457Z" fill="#575658"/>
<path d="M113.153 126.253H109.802V129.297H113.457V126.253H113.153Z" fill="#575658"/>
<path d="M119.548 120.774H115.893V123.818H119.548V120.774Z" fill="#575658"/>
<path d="M119.548 126.253H115.893V129.297H119.548V126.253Z" fill="#575658"/>
<path d="M113.457 140.865V137.821H109.802V140.865H113.153H113.457Z" fill="#575658"/>
<path d="M113.153 143.3H109.802V146.344H113.457V143.3H113.153Z" fill="#575658"/>
<path d="M119.548 137.821H115.893V140.865H119.548V137.821Z" fill="#575658"/>
<path d="M119.548 143.3H115.893V146.344H119.548V143.3Z" fill="#575658"/>
<path d="M94.5764 89.7241H59.2512V97.0299H94.5764V89.7241Z" fill="#575658"/>
<path d="M94.5764 104.336H59.2512V111.641H94.5764V104.336Z" fill="#575658"/>
<path d="M94.5764 118.947H59.2512V126.253H94.5764V118.947Z" fill="#575658"/>
<path d="M94.5764 133.559H59.2512V140.865H94.5764V133.559Z" fill="#575658"/>
<path d="M64.2858 30.234C72.6379 30.234 79.4087 23.4659 79.4087 15.117C79.4087 6.76812 72.6379 0 64.2858 0C55.9336 0 49.1628 6.76812 49.1628 15.117C49.1628 23.4659 55.9336 30.234 64.2858 30.234Z" fill="#FFC700"/>
<path d="M161.207 105.8H159.732V164.028H161.207V105.8Z" fill="#575658"/>
<path d="M175.598 122.746C175.601 123.387 175.595 124.024 175.58 124.658C175.052 147.58 147.561 147.707 146.82 124.791C146.8 124.157 146.788 123.519 146.785 122.879C146.667 97.2572 160.978 76.4204 160.978 76.4204C160.978 76.4204 175.48 97.1245 175.598 122.746Z" fill="#575658"/>
<path d="M156.078 159.458C155.287 159.867 154.551 160.376 153.888 160.971C153.215 160.373 152.466 159.864 151.662 159.458C150.87 159.867 150.134 160.376 149.472 160.971C148.798 160.373 148.05 159.864 147.246 159.458C147.246 159.458 143.813 161.146 143.822 163.208C143.822 163.26 143.825 163.311 143.829 163.362C143.946 164.713 147.496 165.057 149.445 164.42C150.889 164.832 152.418 164.832 153.862 164.42C155.803 165.067 159.425 164.696 159.531 163.331C159.535 163.28 159.536 163.228 159.536 163.177C159.527 161.114 156.078 159.458 156.078 159.458Z" fill="#CCCCCC"/>
<path d="M197.342 139.342L195.515 136.299L212.569 108.443H256.42V112.705L240.585 142.995L222.313 146.648L197.342 139.342Z" fill="#575658"/>
<path d="M263.969 130.261V107.492H258.228V110.496L256.42 108.443L241.803 136.298L239.367 138.734L236.322 150.91L241.803 164.304H269.819V136.907L263.969 130.261Z" fill="#CCCCCC"/>
<path d="M241.803 136.299H195.515V164.304H241.803V136.299Z" fill="#F2F2F2"/>
<path d="M235.408 145.126H225.663V153.65H235.408V145.126Z" fill="#575658"/>
<path d="M221.704 144.822H213.177V164.304H221.704V144.822Z" fill="#CCCCCC"/>
<path d="M203.433 147.866V144.822H199.778V147.866H203.128H203.433Z" fill="#575658"/>
<path d="M203.128 150.302H199.778V153.345H203.433V150.302H203.128Z" fill="#575658"/>
<path d="M209.523 144.822H205.869V147.866H209.523V144.822Z" fill="#575658"/>
<path d="M209.523 150.301H205.869V153.345H209.523V150.301Z" fill="#575658"/>
<path d="M254.898 148.612V145.568H251.243V148.612H254.593H254.898Z" fill="#575658"/>
<path d="M254.593 151.047H251.243V154.091H254.898V151.047H254.593Z" fill="#575658"/>
<path d="M260.988 145.568H257.334V148.612H260.988V145.568Z" fill="#575658"/>
<path d="M260.988 151.047H257.334V154.091H260.988V151.047Z" fill="#575658"/>
<path d="M216.508 119.892L216.026 119.091L220.514 111.762H232.051V112.883L227.885 120.853L223.078 121.814L216.508 119.892Z" fill="#575658"/>
<path d="M232.051 111.762L228.206 119.091L227.565 119.732L226.763 122.936L228.206 126.459H235.577V119.251L232.051 111.762Z" fill="#CCCCCC"/>
<path d="M228.206 119.091H216.027V126.46H228.206V119.091Z" fill="#F2F2F2"/>
<path d="M221.186 122.267V120.813H219.442V122.267H221.041H221.186Z" fill="#575658"/>
<path d="M221.041 123.429H219.442V124.882H221.186V123.429H221.041Z" fill="#575658"/>
<path d="M224.094 120.813H222.35V122.266H224.094V120.813Z" fill="#575658"/>
<path d="M224.094 123.429H222.35V124.883H224.094V123.429Z" fill="#575658"/>
<path d="M252.547 139.342L250.72 136.299L267.773 108.443H311.625V112.705L295.79 142.995L277.518 146.648L252.547 139.342Z" fill="#575658"/>
<path d="M319.174 130.261V107.492H313.433V110.496L311.625 108.443L297.008 136.298L294.572 138.734L291.526 150.91L297.008 164.304H325.024V136.907L319.174 130.261Z" fill="#CCCCCC"/>
<path d="M297.008 136.299H250.72V164.304H297.008V136.299Z" fill="#F2F2F2"/>
<path d="M290.613 145.126H280.868V153.65H290.613V145.126Z" fill="#575658"/>
<path d="M276.909 144.822H268.382V164.304H276.909V144.822Z" fill="#CCCCCC"/>
<path d="M258.637 147.866V144.822H254.983V147.866H258.333H258.637Z" fill="#575658"/>
<path d="M258.333 150.302H254.983V153.345H258.637V150.302H258.333Z" fill="#575658"/>
<path d="M264.728 144.822H261.074V147.866H264.728V144.822Z" fill="#575658"/>
<path d="M264.728 150.301H261.074V153.345H264.728V150.301Z" fill="#575658"/>
<path d="M310.102 148.171V145.126H306.448V148.171H309.798H310.102Z" fill="#575658"/>
<path d="M309.798 150.605H306.448V153.65H310.102V150.605H309.798Z" fill="#575658"/>
<path d="M316.193 145.126H312.539V148.171H316.193V145.126Z" fill="#575658"/>
<path d="M316.193 150.606H312.539V153.65H316.193V150.606Z" fill="#575658"/>
<path d="M305.985 139.342L304.158 136.299L321.211 108.443H365.064V112.705L349.228 142.995L330.957 146.648L305.985 139.342Z" fill="#575658"/>
<path d="M372.612 130.261V107.492H366.871V110.496L365.064 108.443L350.446 136.298L348.01 138.734L344.964 150.91L350.446 164.304H378.463V136.907L372.612 130.261Z" fill="#CCCCCC"/>
<path d="M350.446 136.299H304.158V164.304H350.446V136.299Z" fill="#F2F2F2"/>
<path d="M344.051 145.126H334.306V153.65H344.051V145.126Z" fill="#575658"/>
<path d="M330.347 144.822H321.821V164.304H330.347V144.822Z" fill="#CCCCCC"/>
<path d="M312.076 147.866V144.822H308.422V147.866H311.772H312.076Z" fill="#575658"/>
<path d="M311.772 150.302H308.422V153.345H312.076V150.302H311.772Z" fill="#575658"/>
<path d="M318.166 144.822H314.512V147.866H318.166V144.822Z" fill="#575658"/>
<path d="M318.166 150.301H314.512V153.345H318.166V150.301Z" fill="#575658"/>
<path d="M363.541 148.171V145.126H359.886V148.171H363.237H363.541Z" fill="#575658"/>
<path d="M363.237 150.605H359.886V153.65H363.541V150.605H363.237Z" fill="#575658"/>
<path d="M369.631 145.126H365.977V148.171H369.631V145.126Z" fill="#575658"/>
<path d="M369.631 150.606H365.977V153.65H369.631V150.606Z" fill="#575658"/>
<path d="M270.387 120.334L269.907 119.533L274.393 112.203H285.932V113.325L281.765 121.295L276.958 122.256L270.387 120.334Z" fill="#575658"/>
<path d="M285.932 112.203L282.086 119.533L281.445 120.173L280.644 123.377L282.086 126.901H289.457V119.693L285.932 112.203Z" fill="#CCCCCC"/>
<path d="M282.086 119.532H269.907V126.901H282.086V119.532Z" fill="#F2F2F2"/>
<path d="M275.067 122.708V121.254H273.322V122.708H274.921H275.067Z" fill="#575658"/>
<path d="M274.921 123.871H273.322V125.324H275.067V123.871H274.921Z" fill="#575658"/>
<path d="M277.974 121.254H276.23V122.708H277.974V121.254Z" fill="#575658"/>
<path d="M277.974 123.871H276.23V125.324H277.974V123.871Z" fill="#575658"/>
<path d="M324.268 119.892L323.787 119.091L328.274 111.762H339.812V112.883L335.645 120.853L330.838 121.814L324.268 119.892Z" fill="#575658"/>
<path d="M339.812 111.762L335.965 119.091L335.324 119.732L334.523 122.936L335.965 126.459H343.337V119.251L339.812 111.762Z" fill="#CCCCCC"/>
<path d="M335.966 119.091H323.787V126.46H335.966V119.091Z" fill="#F2F2F2"/>
<path d="M328.946 122.267V120.813H327.202V122.267H328.801H328.946Z" fill="#575658"/>
<path d="M328.801 123.429H327.202V124.882H328.946V123.429H328.801Z" fill="#575658"/>
<path d="M331.854 120.813H330.11V122.266H331.854V120.813Z" fill="#575658"/>
<path d="M331.854 123.429H330.11V124.883H331.854V123.429Z" fill="#575658"/>
<path d="M361.19 139.342L359.363 136.299L376.417 108.443H420.269V112.705L404.433 142.995L386.161 146.648L361.19 139.342Z" fill="#575658"/>
<path d="M427.817 112.35V107.492H422.076V110.496L420.269 108.443L405.651 136.298L403.215 138.734L400.17 150.91L405.651 164.304H433.668V136.907L427.817 112.35Z" fill="#CCCCCC"/>
<path d="M405.651 136.299H359.363V164.304H405.651V136.299Z" fill="#F2F2F2"/>
<path d="M399.256 145.126H389.511V153.65H399.256V145.126Z" fill="#575658"/>
<path d="M385.552 144.822H377.026V164.304H385.552V144.822Z" fill="#CCCCCC"/>
<path d="M367.281 147.866V144.822H363.626V147.866H366.976H367.281Z" fill="#575658"/>
<path d="M366.976 150.302H363.626V153.345H367.281V150.302H366.976Z" fill="#575658"/>
<path d="M373.371 144.822H369.717V147.866H373.371V144.822Z" fill="#575658"/>
<path d="M373.371 150.301H369.717V153.345H373.371V150.301Z" fill="#575658"/>
<path d="M418.746 148.171V145.126H415.091V148.171H418.441H418.746Z" fill="#575658"/>
<path d="M418.441 150.605H415.091V153.65H418.746V150.605H418.441Z" fill="#575658"/>
<path d="M424.836 145.126H421.182V148.171H424.836V145.126Z" fill="#575658"/>
<path d="M424.836 150.606H421.182V153.65H424.836V150.606Z" fill="#575658"/>
<path d="M378.147 120.334L377.667 119.533L382.153 112.203H393.692V113.325L389.525 121.295L384.718 122.256L378.147 120.334Z" fill="#575658"/>
<path d="M393.692 112.203L389.846 119.533L389.205 120.173L388.403 123.377L389.846 126.901H397.217V119.693L393.692 112.203Z" fill="#CCCCCC"/>
<path d="M389.846 119.532H377.667V126.901H389.846V119.532Z" fill="#F2F2F2"/>
<path d="M382.826 122.708V121.254H381.082V122.708H382.681H382.826Z" fill="#575658"/>
<path d="M382.681 123.871H381.082V125.324H382.826V123.871H382.681Z" fill="#575658"/>
<path d="M385.734 121.254H383.99V122.708H385.734V121.254Z" fill="#575658"/>
<path d="M385.734 123.871H383.99V125.324H385.734V123.871Z" fill="#575658"/>
<path d="M486 164.001H0.44165V164.884H486V164.001Z" fill="#575658"/>
<path d="M485.558 246.556H0V247.439H485.558V246.556Z" fill="#575658"/>
<path d="M454.241 105.791H452.766V164.002H454.241V105.791Z" fill="#575658"/>
<path d="M468.627 122.732C468.63 123.373 468.624 124.01 468.61 124.644C468.081 147.559 440.598 147.685 439.858 124.776C439.838 124.143 439.826 123.505 439.823 122.865C439.705 97.251 454.011 76.4204 454.011 76.4204C454.011 76.4204 468.509 97.1183 468.627 122.732Z" fill="#575658"/>
<path d="M162.359 221.008H146.821V223.474H162.359V221.008Z" fill="#575658"/>
<path d="M274.706 221.56L271.5 222.302L149.657 222.367L148.562 219.815C146.651 215.438 145.995 210.616 146.667 205.888C147.192 202.364 148.507 198.862 151.494 197.341L156.901 161.343L224.31 161.222L250.39 182.249C250.39 182.249 262.693 182.028 269.376 190.345C271.491 192.98 273.045 196.47 273.461 201.098L273.725 205.424L274.706 221.56Z" fill="#FFC700"/>
<path d="M247.944 235.998C256.254 235.998 262.99 229.264 262.99 220.958C262.99 212.652 256.254 205.919 247.944 205.919C239.635 205.919 232.899 212.652 232.899 220.958C232.899 229.264 239.635 235.998 247.944 235.998Z" fill="#575658"/>
<path d="M247.944 228.874C252.318 228.874 255.863 225.33 255.863 220.958C255.863 216.587 252.318 213.043 247.944 213.043C243.571 213.043 240.026 216.587 240.026 220.958C240.026 225.33 243.571 228.874 247.944 228.874Z" fill="#CCCCCC"/>
<path d="M173.704 236.037C182.014 236.037 188.75 229.304 188.75 220.998C188.75 212.692 182.014 205.958 173.704 205.958C165.395 205.958 158.659 212.692 158.659 220.998C158.659 229.304 165.395 236.037 173.704 236.037Z" fill="#575658"/>
<path d="M173.704 228.913C178.078 228.913 181.623 225.37 181.623 220.998C181.623 216.626 178.078 213.083 173.704 213.083C169.331 213.083 165.786 216.626 165.786 220.998C165.786 225.37 169.331 228.913 173.704 228.913Z" fill="#CCCCCC"/>
<path d="M240.028 179.791L203.633 179.807H199.19L191.688 179.812V179.265L191.683 172.672L191.678 165.268H196.668L201.111 165.263L208.981 165.258H213.424L222.51 165.252L240.028 179.791Z" fill="#353535"/>
<path d="M185.767 179.817L166.532 179.828L166.527 176.055V169.462L166.521 165.284H169.338L173.781 165.279L185.761 165.273L185.767 179.817Z" fill="#353535"/>
<path d="M194.161 190.662H191.694V195.347H194.161V190.662Z" fill="#575658"/>
<path d="M234.854 186.449L234.852 183.983L230.166 183.986L230.167 186.451L234.854 186.449Z" fill="#575658"/>
<path d="M231.89 174.762H232.162C233.529 174.762 234.84 175.305 235.807 176.271C236.773 177.238 237.317 178.548 237.317 179.915C237.317 181.282 236.773 182.592 235.807 183.559C234.84 184.525 233.529 185.068 232.162 185.068H231.89V174.762Z" fill="#575658"/>
<path d="M273.725 205.424C271.86 205.627 269.983 205.166 268.425 204.121C266.867 203.076 265.728 201.515 265.208 199.713C264.688 197.911 264.821 195.983 265.584 194.27C266.346 192.556 267.689 191.166 269.376 190.345C271.491 192.98 273.045 196.47 273.461 201.098L273.725 205.424Z" fill="#575658"/>
<path d="M201.111 165.263L191.689 179.265L191.683 172.672L196.668 165.268L201.111 165.263Z" fill="#F2F2F2"/>
<path d="M173.781 165.279L166.527 176.055V169.462L169.338 165.284L173.781 165.279Z" fill="#F2F2F2"/>
<path d="M213.424 165.258L203.633 179.807H199.19L208.981 165.258H213.424Z" fill="#F2F2F2"/>
<path d="M360.023 190.023L369.462 190.028L369.463 188.531L360.024 188.526L360.023 190.023Z" fill="#575658"/>
<path d="M291.78 188.863L293.728 189.314L367.74 189.353L368.405 187.803C369.566 185.145 369.964 182.216 369.556 179.344C369.237 177.203 368.438 175.076 366.624 174.152L363.34 152.285L322.393 152.211L306.55 164.984C306.55 164.984 299.077 164.85 295.018 169.902C293.553 171.781 292.688 174.057 292.536 176.434L292.376 179.062L291.78 188.863Z" fill="#575658"/>
<path d="M308.036 197.633C313.083 197.633 317.175 193.543 317.175 188.498C317.175 183.452 313.083 179.362 308.036 179.362C302.989 179.362 298.897 183.452 298.897 188.498C298.897 193.543 302.989 197.633 308.036 197.633Z" fill="#757477"/>
<path d="M308.036 193.306C310.693 193.306 312.846 191.153 312.846 188.498C312.846 185.842 310.693 183.689 308.036 183.689C305.38 183.689 303.226 185.842 303.226 188.498C303.226 191.153 305.38 193.306 308.036 193.306Z" fill="#CCCCCC"/>
<path d="M353.132 197.657C358.18 197.657 362.271 193.567 362.271 188.522C362.271 183.476 358.18 179.386 353.132 179.386C348.085 179.386 343.993 183.476 343.993 188.522C343.993 193.567 348.085 197.657 353.132 197.657Z" fill="#757477"/>
<path d="M353.132 193.33C355.789 193.33 357.942 191.177 357.942 188.522C357.942 185.866 355.789 183.714 353.132 183.714C350.476 183.714 348.322 185.866 348.322 188.522C348.322 191.177 350.476 193.33 353.132 193.33Z" fill="#CCCCCC"/>
<path d="M312.845 163.491L334.953 163.501H337.651L342.208 163.504V163.172L342.211 159.167L342.215 154.669H339.183L336.484 154.666L331.704 154.663H329.005L323.486 154.66L312.845 163.491Z" fill="#353535"/>
<path d="M345.805 163.507L357.489 163.514L357.492 161.222V157.217L357.496 154.679H355.785L353.086 154.676L345.809 154.673L345.805 163.507Z" fill="#353535"/>
<path d="M340.706 172.94L342.204 172.94L342.205 170.095L340.707 170.094L340.706 172.94Z" fill="#575658"/>
<path d="M318.835 167.537L318.835 166.039L315.989 166.038L315.988 167.535L318.835 167.537Z" fill="#575658"/>
<path d="M317.786 166.697L317.621 166.697C316.791 166.697 315.995 166.367 315.408 165.779C314.821 165.192 314.491 164.396 314.492 163.565C314.492 162.735 314.823 161.939 315.41 161.353C315.998 160.766 316.794 160.437 317.625 160.437L317.79 160.437L317.786 166.697Z" fill="#575658"/>
<path d="M292.376 179.062C293.509 179.185 294.649 178.904 295.595 178.27C296.542 177.635 297.234 176.687 297.55 175.592C297.865 174.498 297.784 173.327 297.321 172.286C296.858 171.245 296.042 170.401 295.018 169.902C293.553 171.781 292.688 174.057 292.536 176.433L292.376 179.062Z" fill="#575658"/>
<path d="M336.484 154.666L342.208 163.172L342.211 159.167L339.183 154.669L336.484 154.666Z" fill="#F2F2F2"/>
<path d="M353.086 154.676L357.492 161.222V157.217L355.785 154.679L353.086 154.676Z" fill="#F2F2F2"/>
<path d="M329.005 154.663L334.953 163.501H337.651L331.704 154.663H329.005Z" fill="#F2F2F2"/>
<path d="M86.1662 193.76C86.3819 193.76 86.5568 193.586 86.5568 193.37C86.5568 193.154 86.3819 192.979 86.1662 192.979C85.9505 192.979 85.7756 193.154 85.7756 193.37C85.7756 193.586 85.9505 193.76 86.1662 193.76Z" fill="#D0CDE1"/>
<path d="M82.1677 24.9607L82.1037 24.9955C81.4125 25.3734 80.6379 25.5727 79.8501 25.5755C79.0623 25.5783 78.2863 25.3844 77.5925 25.0114C77.5525 24.9898 77.5128 24.9685 77.4732 24.9475C76.7795 24.5773 76.0047 24.385 75.2182 24.3877C74.4318 24.3904 73.6584 24.5881 72.9672 24.963L72.9075 24.9955C72.2163 25.3734 71.4417 25.5728 70.6539 25.5755C69.8661 25.5783 69.0901 25.3844 68.3963 25.0114C68.3548 24.989 68.3135 24.9669 68.2725 24.9451C67.5869 24.5766 66.8209 24.3831 66.0425 24.3817C65.264 24.3803 64.4973 24.5711 63.8104 24.9372C61.7121 26.0667 58.8755 27.998 58.888 30.1791C58.8885 30.2653 58.8934 30.3515 58.9026 30.4373C59.1466 32.7023 66.5373 33.2794 70.5974 32.212C73.6239 32.9023 76.7671 32.9023 79.7936 32.212C83.8363 33.2965 91.3773 32.6752 91.5977 30.3842C91.606 30.2983 91.61 30.2121 91.6095 30.1259C91.597 27.9436 88.7353 26.0326 86.6238 24.919C85.935 24.5587 85.1679 24.374 84.3905 24.3813C83.6131 24.3886 82.8496 24.5876 82.1677 24.9607Z" fill="#575658"/>
<path d="M219.518 48.9001L219.454 48.935C218.763 49.3128 217.988 49.5122 217.2 49.5149C216.413 49.5177 215.637 49.3238 214.943 48.9508C214.903 48.9292 214.863 48.9079 214.824 48.8869C214.13 48.5168 213.355 48.3244 212.569 48.3271C211.782 48.3298 211.009 48.5275 210.317 48.9025L210.258 48.935C209.567 49.3128 208.792 49.5122 208.004 49.515C207.216 49.5177 206.44 49.3238 205.747 48.9508C205.705 48.9284 205.664 48.9063 205.623 48.8845C204.937 48.5161 204.171 48.3225 203.393 48.3212C202.614 48.3198 201.848 48.5106 201.161 48.8766C199.062 50.0062 196.226 51.9375 196.238 54.1185C196.239 54.2048 196.244 54.291 196.253 54.3767C196.497 56.6418 203.888 57.2189 207.948 56.1515C210.974 56.8418 214.117 56.8418 217.144 56.1515C221.187 57.236 228.728 56.6146 228.948 54.3236C228.956 54.2378 228.96 54.1516 228.96 54.0654C228.947 51.8831 226.086 49.9721 223.974 48.8584C223.285 48.4982 222.518 48.3135 221.741 48.3208C220.963 48.328 220.2 48.527 219.518 48.9001Z" fill="#575658"/>
<path d="M314.448 25.9993L314.384 26.0341C313.693 26.4119 312.918 26.6113 312.13 26.6141C311.343 26.6168 310.567 26.4229 309.873 26.0499C309.833 26.0284 309.793 26.0071 309.754 25.9861C309.06 25.6159 308.285 25.4235 307.499 25.4263C306.712 25.429 305.939 25.6267 305.247 26.0016L305.188 26.0341C304.497 26.412 303.722 26.6113 302.934 26.6141C302.146 26.6169 301.37 26.4229 300.677 26.0499C300.635 26.0276 300.594 26.0055 300.553 25.9837C299.867 25.6152 299.101 25.4217 298.323 25.4203C297.544 25.4189 296.778 25.6097 296.091 25.9758C293.992 27.1053 291.156 29.0366 291.168 31.2177C291.169 31.3039 291.174 31.3901 291.183 31.4758C291.427 33.7409 298.818 34.318 302.878 33.2506C305.904 33.9409 309.047 33.9409 312.074 33.2506C316.117 34.3351 323.658 33.7138 323.878 31.4227C323.886 31.3369 323.89 31.2507 323.89 31.1645C323.877 28.9822 321.016 27.0712 318.904 25.9575C318.215 25.5973 317.448 25.4126 316.671 25.4199C315.893 25.4272 315.13 25.6262 314.448 25.9993Z" fill="#575658"/>
</svg>
