<svg width="387" height="201" viewBox="0 0 387 201" fill="none" xmlns="http://www.w3.org/2000/svg">
<g clip-path="url(#clip0)">
<path d="M268.484 -2.59239e-05L0 159.056L8.07445 172.68L276.558 13.6232L268.484 -2.59239e-05Z" fill="#575658"/>
<path d="M326.838 13.335L58.3542 172.391L66.4287 186.015L334.912 26.9582L326.838 13.335Z" fill="#575658"/>
<path d="M378.523 27.9202L110.039 186.977L118.114 200.6L386.597 41.5434L378.523 27.9202Z" fill="#575658"/>
<path d="M174.877 186.452C221.302 186.452 258.937 148.827 258.937 102.413C258.937 55.9987 221.302 18.3728 174.877 18.3728C128.453 18.3728 90.8184 55.9987 90.8184 102.413C90.8184 148.827 128.453 186.452 174.877 186.452Z" fill="#575658"/>
<path d="M90.1932 102.413C90.1932 55.7284 128.182 17.7478 174.878 17.7478C221.573 17.7478 259.562 55.7284 259.562 102.413C259.562 149.097 221.573 187.078 174.878 187.078C128.182 187.078 90.1932 149.097 90.1932 102.413ZM91.4437 102.413C91.4437 148.408 128.872 185.827 174.878 185.827C220.883 185.827 258.311 148.408 258.311 102.413C258.311 56.4178 220.883 18.998 174.878 18.998C128.872 18.998 91.4437 56.4177 91.4437 102.413H91.4437Z" fill="#29282A"/>
<path d="M159.893 102.778C159.893 99.8152 160.772 96.9188 162.418 94.4552C164.065 91.9915 166.405 90.0714 169.143 88.9375C171.881 87.8036 174.894 87.5069 177.801 88.085C180.708 88.663 183.377 90.0898 185.473 92.185C187.569 94.2801 188.996 96.9495 189.574 99.8555C190.152 102.762 189.855 105.774 188.721 108.511C187.587 111.249 185.667 113.588 183.202 115.234C180.738 116.881 177.841 117.759 174.878 117.759C170.903 117.759 167.092 116.181 164.282 113.371C161.472 110.562 159.893 106.751 159.893 102.778V102.778ZM174.878 88.5279C171.099 88.5322 167.476 90.0349 164.803 92.7064C162.131 95.3779 160.628 99.0001 160.624 102.778C160.624 105.597 161.46 108.352 163.026 110.695C164.592 113.039 166.818 114.865 169.423 115.944C172.027 117.022 174.893 117.304 177.658 116.755C180.423 116.205 182.963 114.848 184.956 112.855C186.95 110.862 188.307 108.323 188.857 105.558C189.407 102.794 189.125 99.9287 188.046 97.3248C186.967 94.721 185.14 92.4954 182.796 90.9295C180.452 89.3637 177.697 88.5279 174.878 88.5279Z" fill="#29282A"/>
<path d="M146.371 102.778C146.371 97.1412 148.042 91.6309 151.175 86.944C154.307 82.2572 158.759 78.6042 163.968 76.4471C169.177 74.2899 174.909 73.7255 180.439 74.8252C185.969 75.9249 191.048 78.6393 195.035 82.6252C199.022 86.6111 201.737 91.6894 202.837 97.2179C203.937 102.746 203.372 108.477 201.215 113.685C199.057 118.893 195.403 123.344 190.715 126.475C186.027 129.607 180.516 131.279 174.878 131.279C171.134 131.279 167.427 130.541 163.968 129.109C160.51 127.677 157.367 125.577 154.72 122.931C152.073 120.284 149.973 117.143 148.54 113.685C147.108 110.227 146.371 106.521 146.371 102.778V102.778ZM174.878 75.0084C169.384 75.0084 164.014 76.637 159.446 79.6884C154.878 82.7398 151.318 87.0768 149.216 92.1511C147.113 97.2253 146.563 102.809 147.635 108.196C148.707 113.582 151.352 118.531 155.237 122.414C159.121 126.298 164.071 128.943 169.459 130.014C174.847 131.086 180.432 130.536 185.507 128.434C190.582 126.332 194.92 122.773 197.972 118.206C201.025 113.639 202.654 108.27 202.654 102.778C202.645 95.4156 199.716 88.3571 194.509 83.1511C189.302 77.945 182.242 75.0167 174.878 75.0084Z" fill="#FFC700"/>
<path d="M119.325 102.778C119.325 91.7935 122.583 81.0555 128.688 71.9221C134.792 62.7887 143.468 55.6701 153.619 51.4665C163.769 47.2628 174.939 46.163 185.715 48.306C196.491 50.449 206.39 55.7386 214.159 63.5059C221.928 71.2732 227.219 81.1694 229.362 91.943C231.506 102.717 230.406 113.884 226.201 124.032C221.996 134.181 214.876 142.855 205.741 148.957C196.605 155.06 185.865 158.318 174.877 158.318C160.149 158.301 146.029 152.444 135.615 142.032C125.2 131.62 119.342 117.503 119.325 102.778ZM174.877 47.9696C164.035 47.9696 153.436 51.1841 144.42 57.2065C135.405 63.229 128.379 71.7889 124.229 81.8039C120.08 91.8188 118.994 102.839 121.11 113.471C123.225 124.103 128.446 133.869 136.113 141.534C143.78 149.199 153.548 154.419 164.182 156.534C174.817 158.648 185.839 157.563 195.857 153.415C205.874 149.266 214.436 142.241 220.46 133.228C226.483 124.215 229.699 113.618 229.699 102.778C229.682 88.2471 223.901 74.3159 213.624 64.0408C203.346 53.7658 189.412 47.986 174.877 47.9696Z" fill="#FFC700"/>
<path d="M174.877 109.355C178.713 109.355 181.821 106.247 181.821 102.413C181.821 98.5784 178.713 95.4702 174.877 95.4702C171.042 95.4702 167.933 98.5784 167.933 102.413C167.933 106.247 171.042 109.355 174.877 109.355Z" fill="#FFC700"/>
<path d="M156.969 129.452C160.804 129.452 163.913 126.343 163.913 122.509C163.913 118.675 160.804 115.567 156.969 115.567C153.134 115.567 150.025 118.675 150.025 122.509C150.025 126.343 153.134 129.452 156.969 129.452Z" fill="#FFC700"/>
<path d="M226.835 126.529C230.67 126.529 233.779 123.42 233.779 119.586C233.779 115.752 230.67 112.644 226.835 112.644C223 112.644 219.891 115.752 219.891 119.586C219.891 123.42 223 126.529 226.835 126.529Z" fill="#FFC700"/>
<path d="M174.878 105.701C176.694 105.701 178.167 104.229 178.167 102.413C178.167 100.597 176.694 99.1243 174.878 99.1243C173.061 99.1243 171.588 100.597 171.588 102.413C171.588 104.229 173.061 105.701 174.878 105.701Z" fill="#FFC700"/>
<path d="M226.835 122.875C228.652 122.875 230.124 121.402 230.124 119.586C230.124 117.77 228.652 116.298 226.835 116.298C225.018 116.298 223.546 117.77 223.546 119.586C223.546 121.402 225.018 122.875 226.835 122.875Z" fill="#FFC700"/>
<path d="M156.969 126.163C158.786 126.163 160.259 124.691 160.259 122.875C160.259 121.058 158.786 119.586 156.969 119.586C155.153 119.586 153.68 121.058 153.68 122.875C153.68 124.691 155.153 126.163 156.969 126.163Z" fill="#FFC700"/>
<path d="M21.3783 68.7967C23.1949 68.7967 24.6676 67.3244 24.6676 65.5082C24.6676 63.692 23.1949 62.2197 21.3783 62.2197C19.5617 62.2197 18.0891 63.692 18.0891 65.5082C18.0891 67.3244 19.5617 68.7967 21.3783 68.7967Z" fill="#FFC700"/>
<path d="M174.695 65.6912H30.3322V64.9604H175.426V102.595H174.695V65.6912Z" fill="#FFC700"/>
<path d="M11.876 65.5082C11.876 63.6293 12.4333 61.7925 13.4774 60.2302C14.5215 58.6679 16.0056 57.4503 17.7419 56.7312C19.4782 56.0122 21.3888 55.824 23.2321 56.1906C25.0754 56.5572 26.7685 57.462 28.0975 58.7906C29.4264 60.1192 30.3314 61.812 30.6981 63.6548C31.0647 65.4977 30.8765 67.4078 30.1573 69.1438C29.4381 70.8797 28.2202 72.3634 26.6575 73.4073C25.0949 74.4512 23.2577 75.0084 21.3783 75.0084C20.1305 75.0084 18.8948 74.7627 17.7419 74.2852C16.589 73.8078 15.5415 73.108 14.6591 72.2259C13.7768 71.3437 13.0768 70.2964 12.5993 69.1438C12.1218 67.9912 11.876 66.7558 11.876 65.5082ZM21.3783 56.7389C19.6435 56.7389 17.9476 57.2532 16.5052 58.2168C15.0628 59.1804 13.9385 60.5499 13.2746 62.1523C12.6107 63.7547 12.437 65.518 12.7755 67.219C13.1139 68.9201 13.9493 70.4827 15.176 71.7091C16.4027 72.9355 17.9656 73.7707 19.6671 74.1091C21.3686 74.4475 23.1322 74.2738 24.735 73.6101C26.3377 72.9464 27.7076 71.8224 28.6714 70.3802C29.6353 68.9381 30.1497 67.2426 30.1497 65.5082C30.147 63.1833 29.2221 60.9543 27.5777 59.3103C25.9333 57.6663 23.7038 56.7415 21.3783 56.7389Z" fill="#FFC700"/>
<path d="M43.3068 163.433C45.1234 163.433 46.596 161.961 46.596 160.144C46.596 158.328 45.1234 156.856 43.3068 156.856C41.4902 156.856 40.0175 158.328 40.0175 160.144C40.0175 161.961 41.4902 163.433 43.3068 163.433Z" fill="#FFC700"/>
<path d="M33.8044 160.144C33.8044 158.265 34.3617 156.429 35.4059 154.866C36.45 153.304 37.9341 152.086 39.6704 151.367C41.4067 150.648 43.3173 150.46 45.1606 150.827C47.0039 151.193 48.697 152.098 50.0259 153.427C51.3549 154.755 52.2599 156.448 52.6265 158.291C52.9932 160.134 52.805 162.044 52.0858 163.78C51.3666 165.516 50.1486 167 48.586 168.044C47.0233 169.087 45.1861 169.645 43.3068 169.645C40.7866 169.645 38.3696 168.644 36.5876 166.862C34.8056 165.08 33.8044 162.664 33.8044 160.144ZM43.3068 151.375C41.5719 151.375 39.8761 151.889 38.4337 152.853C36.9912 153.817 35.867 155.186 35.2031 156.789C34.5392 158.391 34.3655 160.154 34.7039 161.855C35.0424 163.556 35.8777 165.119 37.1044 166.345C38.3311 167.572 39.8941 168.407 41.5955 168.745C43.297 169.084 45.0607 168.91 46.6634 168.246C48.2662 167.583 49.6361 166.459 50.5999 165.016C51.5637 163.574 52.0781 161.879 52.0781 160.144C52.0755 157.819 51.1505 155.59 49.5061 153.946C47.8617 152.302 45.6323 151.378 43.3068 151.375Z" fill="#FFC700"/>
<path d="M328.802 84.1432C330.619 84.1432 332.092 82.6709 332.092 80.8547C332.092 79.0385 330.619 77.5662 328.802 77.5662C326.986 77.5662 325.513 79.0385 325.513 80.8547C325.513 82.6709 326.986 84.1432 328.802 84.1432Z" fill="#FFC700"/>
<path d="M319.3 80.8547C319.3 78.9757 319.857 77.1389 320.901 75.5766C321.946 74.0143 323.43 72.7967 325.166 72.0777C326.902 71.3586 328.813 71.1705 330.656 71.537C332.5 71.9036 334.193 72.8084 335.522 74.137C336.85 75.4657 337.756 77.1584 338.122 79.0013C338.489 80.8441 338.301 82.7543 337.581 84.4902C336.862 86.2261 335.644 87.7098 334.082 88.7537C332.519 89.7976 330.682 90.3548 328.802 90.3548C327.555 90.3548 326.319 90.1091 325.166 89.6317C324.013 89.1542 322.966 88.4545 322.083 87.5723C321.201 86.6901 320.501 85.6428 320.023 84.4902C319.546 83.3376 319.3 82.1022 319.3 80.8547ZM328.802 72.0853C326.477 72.088 324.247 73.0127 322.603 74.6567C320.959 76.3007 320.034 78.5297 320.031 80.8547C320.031 82.5891 320.545 84.2845 321.509 85.7266C322.473 87.1688 323.843 88.2928 325.446 88.9565C327.049 89.6202 328.812 89.7939 330.514 89.4555C332.215 89.1171 333.778 88.2819 335.005 87.0555C336.231 85.8291 337.067 84.2666 337.405 82.5655C337.744 80.8644 337.57 79.1011 336.906 77.4987C336.242 75.8963 335.118 74.5268 333.676 73.5632C332.233 72.5996 330.537 72.0853 328.802 72.0853V72.0853Z" fill="#FFC700"/>
<path d="M226.469 81.9565L319.66 80.4895L319.671 81.2198L227.2 82.676V119.586H226.469V81.9565Z" fill="#FFC700"/>
<path d="M52.4439 159.779H156.604V122.875H157.335V160.509H52.4439V159.779Z" fill="#FFC700"/>
<path d="M41.4794 82.6816H1.27722V85.2394H41.4794V82.6816Z" fill="#FFC700"/>
<path d="M41.4794 89.9895H1.27722V92.5472H41.4794V89.9895Z" fill="#FFC700"/>
<path d="M41.4794 97.2974H1.27722V99.8551H41.4794V97.2974Z" fill="#FFC700"/>
<path d="M63.4079 177.318H23.2057V179.876H63.4079V177.318Z" fill="#FFC700"/>
<path d="M63.4079 184.626H23.2057V187.183H63.4079V184.626Z" fill="#FFC700"/>
<path d="M63.4079 191.933H23.2057V194.491H63.4079V191.933Z" fill="#FFC700"/>
<path d="M348.903 98.3936H308.701V100.951H348.903V98.3936Z" fill="#FFC700"/>
<path d="M348.903 105.701H308.701V108.259H348.903V105.701Z" fill="#FFC700"/>
<path d="M348.903 113.009H308.701V115.567H348.903V113.009Z" fill="#FFC700"/>
</g>
<defs>
<clipPath id="clip0">
<rect width="387" height="201" fill="white"/>
</clipPath>
</defs>
</svg>
