<svg width="454" height="244" viewBox="0 0 454 244" fill="none" xmlns="http://www.w3.org/2000/svg">
<path d="M98.1352 243.473H97.1129C97.1129 230.748 92.051 218.544 83.0408 209.546C74.0305 200.548 61.81 195.493 49.0676 195.493C36.3252 195.493 24.1046 200.548 15.0944 209.546C6.08414 218.544 1.02224 230.748 1.02224 243.473H0C1.93917e-07 230.477 5.1696 218.013 14.3716 208.824C23.5735 199.635 36.0541 194.472 49.0676 194.472C62.0811 194.472 74.5617 199.635 83.7636 208.824C92.9656 218.013 98.1352 230.477 98.1352 243.473Z" fill="#53555A"/>
<path d="M453.875 243.473H452.853C452.853 230.748 447.791 218.544 438.781 209.546C429.771 200.548 417.55 195.493 404.808 195.493C392.065 195.493 379.845 200.548 370.835 209.546C361.824 218.544 356.762 230.748 356.762 243.473H355.74C355.74 230.477 360.91 218.013 370.112 208.824C379.314 199.635 391.794 194.472 404.808 194.472C417.821 194.472 430.302 199.635 439.504 208.824C448.706 218.013 453.875 230.477 453.875 243.473Z" fill="#53555A"/>
<path d="M333.762 126.585H332.74C332.74 78.1761 293.302 38.7923 244.827 38.7923C196.351 38.7923 156.914 78.1761 156.914 126.585H155.892C155.892 77.6133 195.788 37.7715 244.827 37.7715C293.866 37.7715 333.762 77.6133 333.762 126.585Z" fill="#53555A"/>
<path d="M74.3681 40.3236C85.5183 40.3236 94.5574 31.2968 94.5574 20.1618C94.5574 9.02674 85.5183 0 74.3681 0C63.2179 0 54.1788 9.02674 54.1788 20.1618C54.1788 31.2968 63.2179 40.3236 74.3681 40.3236Z" fill="#FFC700"/>
<path d="M78.6569 158.938L113.342 117.687H181.535L223.209 158.223L222.367 158.764H222.668V243.078H78.7044V158.764L78.6569 158.938Z" fill="#53555A"/>
<path d="M99.525 141.004H107.388V113.825H99.525V141.004Z" fill="#53555A"/>
<path d="M112.801 117.147L155.557 167.206V243.078H78.7045V157.683L112.801 117.147Z" fill="#FFC700"/>
<path d="M145.676 177.14H129.981V193.166H145.676V177.14Z" fill="#53555A"/>
<path d="M145.676 198.947H129.981V214.973H145.676V198.947Z" fill="#53555A"/>
<path d="M145.676 177.14H129.981V193.166H145.676V177.14Z" fill="#575658"/>
<path d="M145.676 198.947H129.981V214.973H145.676V198.947Z" fill="#575658"/>
<path d="M123.97 177.14H108.275V193.166H123.97V177.14Z" fill="#53555A"/>
<path d="M123.97 198.947H108.275V214.973H123.97V198.947Z" fill="#53555A"/>
<path d="M123.97 177.14H108.275V193.166H123.97V177.14Z" fill="#575658"/>
<path d="M123.97 198.947H108.275V214.973H123.97V198.947Z" fill="#575658"/>
<path d="M102.263 177.14H86.5681V193.166H102.263V177.14Z" fill="#53555A"/>
<path d="M102.263 198.947H86.5681V214.973H102.263V198.947Z" fill="#53555A"/>
<path d="M102.263 177.14H86.5681V193.166H102.263V177.14Z" fill="#575658"/>
<path d="M102.263 198.947H86.5681V214.973H102.263V198.947Z" fill="#575658"/>
<path d="M255.049 20.417H247.894V38.2819H255.049V20.417Z" fill="#FFC700"/>
<path d="M254.538 36.7506H193.715V243.473H254.538V36.7506Z" fill="#FFC700"/>
<path d="M279.072 36.7506H254.538V243.473H279.072V36.7506Z" fill="#53555A"/>
<path d="M213.904 54.6155H204.704V63.8031H213.904V54.6155Z" fill="#575658"/>
<path d="M228.727 54.6155H219.526V63.8031H228.727V54.6155Z" fill="#575658"/>
<path d="M243.549 54.6155H234.349V63.8031H243.549V54.6155Z" fill="#575658"/>
<path d="M214.16 75.543H204.959V84.7306H214.16V75.543Z" fill="#575658"/>
<path d="M228.982 75.543H219.782V84.7306H228.982V75.543Z" fill="#575658"/>
<path d="M243.805 75.543H234.604V84.7306H243.805V75.543Z" fill="#575658"/>
<path d="M214.415 96.4703H205.215V105.658H214.415V96.4703Z" fill="#575658"/>
<path d="M229.238 96.4703H220.037V105.658H229.238V96.4703Z" fill="#575658"/>
<path d="M244.06 96.4703H234.86V105.658H244.06V96.4703Z" fill="#575658"/>
<path d="M214.671 117.398H205.471V126.585H214.671V117.398Z" fill="#575658"/>
<path d="M229.493 117.398H220.293V126.585H229.493V117.398Z" fill="#575658"/>
<path d="M244.316 117.398H235.116V126.585H244.316V117.398Z" fill="#575658"/>
<path d="M214.926 138.325H205.726V147.513H214.926V138.325Z" fill="#575658"/>
<path d="M229.749 138.325H220.549V147.513H229.749V138.325Z" fill="#575658"/>
<path d="M244.571 138.325H235.371V147.513H244.571V138.325Z" fill="#575658"/>
<path d="M215.182 159.253H205.982V168.44H215.182V159.253Z" fill="#575658"/>
<path d="M230.004 159.253H220.804V168.44H230.004V159.253Z" fill="#575658"/>
<path d="M244.827 159.253H235.627V168.44H244.827V159.253Z" fill="#575658"/>
<path d="M215.437 180.18H206.237V189.368H215.437V180.18Z" fill="#575658"/>
<path d="M230.26 180.18H221.06V189.368H230.26V180.18Z" fill="#575658"/>
<path d="M245.082 180.18H235.882V189.368H245.082V180.18Z" fill="#575658"/>
<path d="M215.693 201.108H206.493V210.295H215.693V201.108Z" fill="#575658"/>
<path d="M230.516 201.108H221.315V210.295H230.516V201.108Z" fill="#575658"/>
<path d="M230.516 225.608H221.315V242.962H230.516V225.608Z" fill="#575658"/>
<path d="M245.338 201.108H236.138V210.295H245.338V201.108Z" fill="#575658"/>
<path d="M258.627 20.417H254.538V37.7714H258.627V20.417Z" fill="#53555A"/>
<path d="M331.717 111.273H324.562V121.861H331.717V111.273Z" fill="#FFC700"/>
<path d="M331.206 120.953H270.383V243.473H331.206V120.953Z" fill="#FFC700"/>
<path d="M355.74 120.953H331.206V243.473H355.74V120.953Z" fill="#53555A"/>
<path d="M291.594 138.325H282.394V147.513H291.594V138.325Z" fill="#575658"/>
<path d="M306.417 138.325H297.217V147.513H306.417V138.325Z" fill="#575658"/>
<path d="M321.239 138.325H312.039V147.513H321.239V138.325Z" fill="#575658"/>
<path d="M291.85 159.253H282.65V168.44H291.85V159.253Z" fill="#575658"/>
<path d="M306.672 159.253H297.472V168.44H306.672V159.253Z" fill="#575658"/>
<path d="M321.495 159.253H312.295V168.44H321.495V159.253Z" fill="#575658"/>
<path d="M292.106 180.18H282.905V189.368H292.106V180.18Z" fill="#575658"/>
<path d="M306.928 180.18H297.728V189.368H306.928V180.18Z" fill="#575658"/>
<path d="M321.75 180.18H312.55V189.368H321.75V180.18Z" fill="#575658"/>
<path d="M292.361 201.108H283.161V210.295H292.361V201.108Z" fill="#575658"/>
<path d="M307.184 201.108H297.983V210.295H307.184V201.108Z" fill="#575658"/>
<path d="M307.184 225.608H297.983V242.962H307.184V225.608Z" fill="#575658"/>
<path d="M322.006 201.108H312.806V210.295H322.006V201.108Z" fill="#575658"/>
<path d="M335.295 111.273H331.206V121.558H335.295V111.273Z" fill="#53555A"/>
<path d="M454 242.856H0.124756V244H454V242.856Z" fill="#53555A"/>
<path d="M374.478 219.524C381.828 219.524 387.787 213.573 387.787 206.232C387.787 198.892 381.828 192.941 374.478 192.941C367.127 192.941 361.168 198.892 361.168 206.232C361.168 213.573 367.127 219.524 374.478 219.524Z" fill="#FFC700"/>
<path opacity="0.2" d="M384.378 197.355C385.62 200.255 385.788 203.501 384.853 206.514C383.919 209.527 381.942 212.109 379.276 213.801C376.61 215.492 373.428 216.181 370.3 215.745C367.172 215.31 364.301 213.777 362.2 211.422C362.959 213.194 364.094 214.78 365.527 216.07C366.96 217.361 368.657 218.324 370.5 218.895C372.343 219.465 374.288 219.629 376.201 219.374C378.114 219.119 379.948 218.452 381.577 217.418C383.206 216.385 384.59 215.011 385.634 213.39C386.678 211.77 387.357 209.942 387.623 208.033C387.89 206.125 387.738 204.181 387.177 202.338C386.617 200.494 385.662 198.793 384.378 197.355Z" fill="black"/>
<path d="M374.514 206.233H374.551L375.209 243.917H373.819L374.514 206.233Z" fill="#53555A"/>
<path d="M376.938 226.759L376.631 226.177L374.431 227.334L374.738 227.916L376.938 226.759Z" fill="#53555A"/>
<path d="M413.608 206.824C424.787 206.824 433.848 197.774 433.848 186.611C433.848 175.448 424.787 166.399 413.608 166.399C402.43 166.399 393.368 175.448 393.368 186.611C393.368 197.774 402.43 206.824 413.608 206.824Z" fill="#FFC700"/>
<path opacity="0.2" d="M428.664 173.111C430.552 177.521 430.808 182.458 429.387 187.039C427.965 191.621 424.959 195.548 420.905 198.12C416.85 200.691 412.013 201.739 407.256 201.077C402.499 200.414 398.133 198.084 394.938 194.503C396.092 197.197 397.818 199.609 399.997 201.571C402.176 203.534 404.757 204.999 407.56 205.866C410.362 206.734 413.32 206.982 416.229 206.595C419.137 206.207 421.927 205.192 424.404 203.621C426.881 202.05 428.986 199.96 430.574 197.496C432.161 195.032 433.194 192.252 433.599 189.35C434.004 186.448 433.773 183.492 432.921 180.688C432.068 177.884 430.616 175.299 428.664 173.111Z" fill="black"/>
<path d="M413.664 186.611H413.72L414.72 243.917H412.607L413.664 186.611Z" fill="#53555A"/>
<path d="M417.349 217.825L416.883 216.941L413.537 218.7L414.004 219.584L417.349 217.825Z" fill="#53555A"/>
<path d="M13.6263 219.014C20.9771 219.014 26.9362 213.063 26.9362 205.722C26.9362 198.381 20.9771 192.43 13.6263 192.43C6.27544 192.43 0.316406 198.381 0.316406 205.722C0.316406 213.063 6.27544 219.014 13.6263 219.014Z" fill="#FFC700"/>
<path opacity="0.2" d="M23.527 196.844C24.7685 199.744 24.9369 202.991 24.0022 206.004C23.0674 209.016 21.0904 211.599 18.4243 213.29C15.7583 214.981 12.577 215.671 9.44893 215.235C6.32086 214.799 3.44983 213.267 1.34888 210.912C2.10728 212.684 3.24238 214.27 4.67552 215.56C6.10866 216.85 7.80557 217.814 9.6487 218.384C11.4918 218.955 13.4371 219.118 15.3497 218.863C17.2623 218.608 19.0966 217.941 20.7254 216.908C22.3542 215.875 23.7386 214.5 24.7827 212.88C25.8268 211.259 26.5056 209.432 26.7721 207.523C27.0386 205.615 26.8864 203.671 26.3261 201.827C25.7658 199.983 24.8107 198.283 23.5271 196.844H23.527Z" fill="black"/>
<path d="M13.6628 205.722H13.6996L14.3574 243.406H12.9681L13.6628 205.722Z" fill="#53555A"/>
<path d="M16.0864 226.248L15.7798 225.667L13.5796 226.824L13.8862 227.405L16.0864 226.248Z" fill="#53555A"/>
<path d="M309.951 19.0571L314.656 15.299C311 14.8962 309.499 16.887 308.884 18.4628C306.028 17.2786 302.92 18.8305 302.92 18.8305L312.334 22.2436C311.859 20.9767 311.032 19.8714 309.951 19.0571Z" fill="#53555A"/>
<path d="M73.8127 37.9429L78.5179 34.1847C74.8626 33.782 73.3608 35.7728 72.7461 37.3485C69.8905 36.1643 66.7817 37.7163 66.7817 37.7163L76.196 41.1293C75.7211 39.8625 74.8943 38.7571 73.8127 37.9429Z" fill="#53555A"/>
<path d="M381.507 57.339L386.213 53.5808C382.557 53.1781 381.055 55.1689 380.441 56.7446C377.585 55.5604 374.476 57.1124 374.476 57.1124L383.891 60.5254C383.416 59.2586 382.589 58.1533 381.507 57.339Z" fill="#53555A"/>
<path d="M112.658 27.7344L117.363 23.9762C113.708 23.5735 112.206 25.5643 111.591 27.14C108.736 25.9558 105.627 27.5078 105.627 27.5078L115.041 30.9208C114.566 29.654 113.74 28.5486 112.658 27.7344Z" fill="#53555A"/>
<path d="M121.347 68.5684L126.052 64.8102C122.397 64.4075 120.895 66.3983 120.28 67.974C117.425 66.7898 114.316 68.3417 114.316 68.3417L123.73 71.7548C123.255 70.488 122.429 69.3826 121.347 68.5684Z" fill="#53555A"/>
<path d="M304.328 90.0062L309.033 86.2481C305.378 85.8453 303.876 87.8361 303.262 89.4119C300.406 88.2277 297.297 89.7796 297.297 89.7796L306.712 93.1927C306.237 91.9258 305.41 90.8205 304.328 90.0062Z" fill="#53555A"/>
<path d="M54.1787 232.754H22.4893V233.775H27.4313V243.473H28.4535V233.775H47.7034V243.473H48.7256V233.775H54.1787V232.754Z" fill="#53555A"/>
<path d="M86.3794 236.837C85.1286 236.837 83.8999 237.166 82.8172 237.792C81.7175 236.799 80.3529 236.146 78.8889 235.912C77.4248 235.679 75.9244 235.875 74.5697 236.476C73.2151 237.078 72.0644 238.059 71.2574 239.301C70.4504 240.543 70.0218 241.992 70.0236 243.473H93.5093C93.3813 241.671 92.5746 239.985 91.2517 238.754C89.9287 237.523 88.1878 236.838 86.3794 236.837Z" fill="#53555A"/>
<path d="M207.515 236.837C206.264 236.837 205.036 237.166 203.953 237.792C202.853 236.799 201.488 236.146 200.024 235.912C198.56 235.679 197.06 235.875 195.705 236.476C194.351 237.078 193.2 238.059 192.393 239.301C191.586 240.543 191.157 241.992 191.159 243.473H214.645C214.517 241.671 213.71 239.985 212.387 238.754C211.064 237.523 209.323 236.838 207.515 236.837Z" fill="#53555A"/>
<path d="M286.739 236.837C285.488 236.837 284.259 237.166 283.177 237.792C282.077 236.799 280.712 236.146 279.248 235.912C277.784 235.679 276.284 235.875 274.929 236.476C273.574 237.078 272.424 238.059 271.617 239.301C270.81 240.543 270.381 241.992 270.383 243.473H293.869C293.741 241.671 292.934 239.985 291.611 238.754C290.288 237.523 288.547 236.838 286.739 236.837Z" fill="#53555A"/>
<path d="M391.007 236.837C389.757 236.837 388.528 237.166 387.445 237.792C386.346 236.799 384.981 236.146 383.517 235.912C382.053 235.679 380.552 235.875 379.198 236.476C377.843 237.078 376.692 238.059 375.885 239.301C375.078 240.543 374.65 241.992 374.652 243.473H398.137C398.009 241.671 397.203 239.985 395.88 238.754C394.557 237.523 392.816 236.838 391.007 236.837Z" fill="#53555A"/>
<path d="M441.097 236.837C439.847 236.837 438.618 237.166 437.535 237.792C436.435 236.799 435.071 236.146 433.607 235.912C432.143 235.679 430.642 235.875 429.288 236.476C427.933 237.078 426.782 238.059 425.975 239.301C425.168 240.543 424.74 241.992 424.741 243.473H448.227C448.099 241.671 447.292 239.985 445.97 238.754C444.647 237.523 442.906 236.838 441.097 236.837Z" fill="#53555A"/>
<path d="M65.9345 207.743H57.7566V215.91H61.5476V243.428H62.5698V215.91H65.9345V207.743Z" fill="#53555A"/>
<path d="M54.2411 229.7H22.5516V230.721H54.2411V229.7Z" fill="#53555A"/>
<path d="M54.2411 227.148H22.5516V228.168H54.2411V227.148Z" fill="#53555A"/>
<path d="M54.2411 224.595H22.5516V225.616H54.2411V224.595Z" fill="#53555A"/>
</svg>
