<svg width="139" height="33" viewBox="0 0 139 33" fill="none" xmlns="http://www.w3.org/2000/svg">
<path d="M32.6608 30.8069H24.9552L22.5979 25.1448H9.75564L7.60797 30.8069H0.0292969L11.6077 2.20966H19.9026L32.6608 30.8069ZM15.8607 9.04308L11.6503 20.1543H20.4926L15.8607 9.04308ZM60.6517 2.20966H66.8832V30.8069H59.7245V12.9442L51.9772 21.9166H50.8828L43.136 12.9442V30.8066H35.9773V2.20966H42.2088L51.4296 12.818L60.6517 2.20966ZM85.0217 2.20966C95.5054 2.20966 100.894 8.70807 100.894 16.5491C100.894 24.7674 95.6737 30.8069 84.2212 30.8069H72.3472V2.20966H85.0217ZM79.5054 25.5656H84.1783C91.3784 25.5656 93.526 20.7005 93.526 16.5067C93.526 11.6004 90.873 7.45035 84.0941 7.45035H79.5052V25.5656H79.5054ZM115.136 8.99033L106.11 0H138.97V32.7247L129.943 23.7354V8.99033H115.136ZM115.125 10.7918L105.832 20.0459V33H118.839L128.131 23.7459H115.125V10.7918Z" fill="#444957"/>
</svg>
