<svg width="25" height="17" viewBox="0 0 25 17" fill="none" xmlns="http://www.w3.org/2000/svg">
<path d="M24.5689 16.6392H0.431054C0.193017 16.6392 0 16.4474 0 16.2108V0.789119C0 0.552547 0.193017 0.360718 0.431054 0.360718H24.5689C24.807 0.360718 25 0.552547 25 0.789119V16.2108C25 16.4475 24.8069 16.6392 24.5689 16.6392Z" fill="#009966"/>
<path d="M5.17282 5.89305C5.2153 6.16369 5.3799 6.24861 5.52302 6.2375C5.69177 6.2245 5.83976 6.07115 5.83976 5.90916V4.98044C5.83976 4.93395 5.87785 4.896 5.92472 4.896C5.9716 4.896 6.00969 4.93391 6.00969 4.98044V5.91314C6.00969 6.02529 6.06545 6.12987 6.15895 6.19266C6.21603 6.2311 6.28249 6.25085 6.34943 6.25085C6.39206 6.25085 6.43488 6.24274 6.4757 6.22658L6.56061 6.19286C6.56842 6.97245 6.52072 7.65761 6.51984 7.67018C6.5132 7.76321 6.58361 7.84401 6.67721 7.85061C6.68136 7.85095 6.68542 7.85109 6.68952 7.85109C6.7779 7.85109 6.85246 7.78315 6.85885 7.69425C6.86281 7.63937 6.91515 6.88898 6.89948 6.05814L6.95085 6.03776C6.99587 6.01995 7.04645 6.02209 7.08976 6.04354C7.27692 6.13622 7.50211 6.10007 7.65001 5.95313L7.68063 5.92275C7.81793 5.78605 7.86515 5.58747 7.80368 5.40428L7.659 4.97292C7.73722 4.99631 7.82316 4.96191 7.86095 4.88703C7.90294 4.80361 7.86891 4.70219 7.78498 4.66045L7.44518 4.49158C7.38371 4.46091 7.30993 4.47032 7.25783 4.51497C7.20588 4.55985 7.18625 4.63124 7.20797 4.69602L7.48136 5.51119C7.50182 5.57219 7.4861 5.63848 7.44035 5.684L7.40978 5.71437C7.36549 5.75839 7.29801 5.76911 7.24162 5.7414C7.13151 5.68671 7.00612 5.67647 6.88849 5.70627C6.86462 5.16426 6.80588 4.62454 6.68078 4.25141C6.65114 4.163 6.55509 4.11505 6.46579 4.1447C6.37677 4.17406 6.32868 4.26966 6.35837 4.35827C6.48078 4.72315 6.5341 5.27923 6.55304 5.83215L6.34963 5.913V4.9803C6.34963 4.74746 6.15905 4.55811 5.92482 4.55811C5.69059 4.55811 5.50002 4.74741 5.50002 4.9803V5.79774L5.32668 4.94681C5.30822 4.85529 5.21867 4.7956 5.12648 4.81472C5.03444 4.83336 4.97497 4.9224 4.99367 5.01378L5.17282 5.89305Z" fill="#F5F5F5"/>
<path d="M5.5 4.47385C5.59385 4.47385 5.66992 4.39834 5.66992 4.30498V4.1361C5.66992 4.04278 5.59385 3.96722 5.5 3.96722C5.40615 3.96722 5.33008 4.04273 5.33008 4.1361V4.30498C5.33008 4.39829 5.40615 4.47385 5.5 4.47385Z" fill="#F5F5F5"/>
<path d="M7.19897 4.30498H7.3689C7.46274 4.30498 7.53882 4.22947 7.53882 4.1361C7.53882 4.04278 7.46274 3.96722 7.3689 3.96722H7.19897C7.10513 3.96722 7.02905 4.04273 7.02905 4.1361C7.02905 4.22947 7.10513 4.30498 7.19897 4.30498Z" fill="#F5F5F5"/>
<path d="M6.09211 6.5243L5.24255 7.03093C5.16203 7.07892 5.13601 7.18262 5.1843 7.26265C5.21613 7.31539 5.27238 7.34461 5.33015 7.34461C5.35993 7.34461 5.39006 7.33684 5.41745 7.32049L6.26701 6.81386C6.34753 6.76587 6.37355 6.66217 6.32526 6.58214C6.27697 6.50217 6.17267 6.4763 6.09211 6.5243Z" fill="#F5F5F5"/>
<path d="M8.38288 6.82297L8.38688 6.8203C8.40114 6.87737 8.4256 6.93259 8.4653 6.97899C8.53434 7.05978 8.63786 7.1004 8.75485 7.09079C8.92082 7.07876 9.03361 7.00339 9.10831 6.9061C9.11969 6.91386 9.13165 6.92095 9.14415 6.92721C9.236 6.97321 9.3422 6.96977 9.44332 6.9176C9.70011 6.78619 9.75543 6.48211 9.74762 6.32314C9.74303 6.23045 9.66373 6.16503 9.57072 6.16319C9.47741 6.16717 9.40475 6.24583 9.40812 6.33852C9.40822 6.34065 9.41198 6.54102 9.28873 6.61542C9.26862 6.58756 9.24479 6.52486 9.2358 6.47309C9.22145 6.38617 9.14113 6.32566 9.0547 6.3326C8.96662 6.33949 8.89855 6.41306 8.89826 6.50094C8.89816 6.5255 8.89269 6.74217 8.72438 6.76032C8.7048 6.73378 8.70446 6.62197 8.72374 6.53933C8.74 6.47153 8.71266 6.40078 8.65495 6.36123C8.59713 6.32149 8.52091 6.32149 8.46286 6.3606L8.36803 6.4247C8.32301 5.44542 8.21925 4.30429 8.21798 4.28969C8.20954 4.197 8.12741 4.1279 8.03341 4.13682C7.93996 4.14522 7.87106 4.22738 7.87956 4.3204C7.88102 4.33603 8.00099 5.65632 8.038 6.66458C8.02931 6.67278 8.02038 6.68175 8.01188 6.68962C7.94469 6.52127 7.81149 6.41524 7.63996 6.39908C7.39787 6.37783 7.13556 6.54156 7.04152 6.77541C6.96047 6.97661 7.01149 7.17436 7.1714 7.27903C7.28639 7.35439 7.45993 7.37812 7.67814 7.30213C7.62487 7.48814 7.52785 7.67681 7.40177 7.82273C7.28884 7.95352 7.10026 8.10439 6.85895 8.09764C6.71847 8.09216 6.61056 8.04649 6.52897 7.95779C6.33224 7.74422 6.34919 7.35769 6.34933 7.35357C6.35422 7.26054 6.28254 7.18125 6.18903 7.1761C6.09484 7.1662 6.01516 7.24225 6.00998 7.33542C6.00881 7.35682 5.98415 7.86481 6.27678 8.18422C6.42082 8.34169 6.61218 8.42598 6.84557 8.43505C6.85695 8.43554 6.86833 8.43569 6.87975 8.43569C7.16398 8.43569 7.43976 8.29714 7.65944 8.04271C7.86608 7.80357 8.00641 7.47872 8.0485 7.17717C8.04796 7.75484 7.69767 8.40637 7.23327 8.69341C7.03605 8.81512 6.72858 8.92494 6.38224 8.75524C5.95529 8.54579 6.00617 8.06081 6.00842 8.04101C6.02009 7.94847 5.95402 7.86408 5.86091 7.85253C5.76823 7.84132 5.68278 7.90644 5.67126 7.99913C5.66745 8.02932 5.58581 8.74121 6.2319 9.058C6.39787 9.13943 6.5714 9.17986 6.74631 9.17986C6.97096 9.17986 7.19772 9.11308 7.41266 8.98016C7.97809 8.63086 8.38849 7.87199 8.38849 7.17577C8.38844 7.06692 8.38634 6.94802 8.38288 6.82297ZM7.35832 6.99704C7.32795 6.97704 7.35168 6.91328 7.3568 6.90056C7.39259 6.81152 7.50451 6.7345 7.59391 6.7345C7.5985 6.7345 7.60314 6.73465 7.60758 6.73513C7.62931 6.73712 7.68698 6.74256 7.71178 6.87004C7.71442 6.88358 7.71667 6.89741 7.71842 6.91158C7.52907 7.02213 7.40212 7.02562 7.35832 6.99704Z" fill="#F5F5F5"/>
<path d="M5.58576 8.55018C5.50524 8.50316 5.40124 8.53004 5.35348 8.61006C5.34567 8.62307 5.33532 8.63729 5.32477 8.6501C5.32292 8.64583 5.32111 8.64122 5.31925 8.63622C5.24841 8.44837 5.29884 8.159 5.32433 8.0633C5.34831 7.97329 5.29435 7.88094 5.20383 7.85682C5.1134 7.83372 5.02038 7.88618 4.99606 7.97625C4.98371 8.02191 4.87927 8.43187 5.00104 8.75477C5.07902 8.96126 5.19875 9.01337 5.28551 9.02041C5.29323 9.02104 5.30085 9.02138 5.30842 9.02138C5.49132 9.02138 5.61305 8.83819 5.64689 8.78015C5.69381 8.69974 5.66632 8.59735 5.58576 8.55018Z" fill="#F5F5F5"/>
<path d="M8.72119 5.48702C8.75796 5.48702 8.79497 5.47528 8.82602 5.45092L9.68266 4.78255C9.69448 4.77333 9.70205 4.76124 9.71069 4.74989C9.83408 4.67593 9.91753 4.54277 9.91753 4.38947C9.91753 4.15664 9.72695 3.96729 9.49272 3.96729C9.25849 3.96729 9.06792 4.15659 9.06792 4.38947C9.06792 4.51977 9.12885 4.63493 9.22241 4.71243L8.61611 5.18547C8.54233 5.24303 8.52949 5.3492 8.5874 5.42243C8.62094 5.46489 8.67085 5.48702 8.72119 5.48702ZM9.49277 4.30499C9.53964 4.30499 9.57773 4.34289 9.57773 4.38943C9.57773 4.43596 9.53964 4.47386 9.49277 4.47386C9.44589 4.47386 9.40781 4.43596 9.40781 4.38943C9.40781 4.34289 9.44589 4.30499 9.49277 4.30499Z" fill="#F5F5F5"/>
<path d="M9.29168 5.32695C9.20218 5.2973 9.10633 5.34525 9.07669 5.43366C9.05853 5.48772 8.97635 5.76632 9.14291 5.93165C9.20755 5.99595 9.29247 6.02813 9.39676 6.02793C9.46644 6.02793 9.54476 6.01376 9.63148 5.98489C9.72049 5.95553 9.76859 5.85993 9.7389 5.77132C9.70921 5.6829 9.61317 5.63476 9.52391 5.66461C9.42899 5.69596 9.38885 5.69086 9.38519 5.69411C9.37518 5.66907 9.38177 5.59366 9.3992 5.53975C9.4286 5.45162 9.3805 5.35631 9.29168 5.32695Z" fill="#F5F5F5"/>
<path d="M11.2363 4.62884C11.2523 4.63345 11.2683 4.63559 11.2841 4.63559C11.3576 4.63559 11.4254 4.58779 11.4471 4.51402L11.5462 4.17632C11.5725 4.08679 11.5207 3.99294 11.4307 3.96688C11.3404 3.94096 11.2463 3.99211 11.22 4.08164L11.1209 4.41935C11.0946 4.50903 11.1463 4.60283 11.2363 4.62884Z" fill="#F5F5F5"/>
<path d="M10.246 4.60906C10.273 4.62474 10.3026 4.63216 10.3316 4.63216C10.39 4.63216 10.4468 4.60232 10.4784 4.5486C10.5258 4.46814 10.4986 4.36453 10.4176 4.31756C10.3834 4.29776 10.388 4.24185 10.3893 4.23079C10.3944 4.18644 10.421 4.13233 10.4673 4.11801C10.5569 4.09035 10.6069 3.99567 10.579 3.90663C10.551 3.81743 10.4559 3.76808 10.3662 3.79545C10.1968 3.84786 10.0733 4.00373 10.0516 4.1924C10.0315 4.36798 10.106 4.52763 10.246 4.60906Z" fill="#F5F5F5"/>
<path d="M8.89807 7.3446C8.80422 7.3446 8.72815 7.42011 8.72815 7.51348C8.72815 7.59593 8.78757 7.66455 8.86619 7.67935C8.87512 7.69235 8.89802 7.73709 8.89802 7.85118C8.89802 7.9445 8.9741 8.02006 9.06794 8.02006C9.16179 8.02006 9.23787 7.94455 9.23787 7.85118C9.23791 7.35038 8.91194 7.3446 8.89807 7.3446Z" fill="#F5F5F5"/>
<path d="M11.7807 6.64533C11.802 6.64883 11.8233 6.65043 11.8446 6.65043C11.9781 6.65043 12.113 6.58351 12.2466 6.45074C12.3129 6.38479 12.3129 6.27793 12.2466 6.21198C12.1802 6.14603 12.0727 6.14603 12.0063 6.21198C11.9047 6.31306 11.85 6.3152 11.836 6.31205C11.8036 6.30744 11.7742 6.26536 11.7677 6.25386C11.725 6.1717 11.624 6.13895 11.5408 6.18029C11.4568 6.22203 11.4227 6.32345 11.4648 6.40687C11.4753 6.42783 11.5734 6.61185 11.7807 6.64533Z" fill="#F5F5F5"/>
<path d="M14.6689 5.45867C14.6678 5.45605 14.6668 5.45357 14.6659 5.45124C14.6358 5.36355 14.5396 5.31585 14.4515 5.34569C14.3624 5.37505 14.3143 5.47065 14.344 5.55926C14.3572 5.59881 14.4329 5.79739 14.6204 5.82243C14.633 5.82408 14.6454 5.8249 14.6578 5.8249C14.7755 5.8249 14.8859 5.7492 14.9864 5.59945C15.0384 5.52195 15.0173 5.41708 14.9392 5.3653C14.8611 5.31367 14.7555 5.33444 14.7036 5.41218C14.6902 5.43212 14.6786 5.44731 14.6689 5.45867Z" fill="#F5F5F5"/>
<path d="M14.3354 8.52659C14.3354 7.80649 14.3035 7.13094 14.2593 6.539C14.5006 6.95483 14.7176 7.37503 14.8559 7.74161C14.8815 7.8094 14.9462 7.85113 15.015 7.85113C15.0348 7.85113 15.055 7.84764 15.0746 7.84041C15.1625 7.80761 15.207 7.71031 15.174 7.62291C14.959 7.0531 14.5724 6.37449 14.1914 5.77207C14.0986 4.86242 13.9946 4.28504 13.9927 4.27475C13.976 4.18294 13.8877 4.12092 13.7952 4.13883C13.7029 4.15547 13.6417 4.24335 13.6584 4.33507C13.6598 4.3424 13.7133 4.63982 13.7773 5.14039C13.6467 4.94788 13.5255 4.7742 13.4237 4.63123L13.432 4.63385C13.5215 4.6635 13.6173 4.61556 13.647 4.52714C13.6767 4.43858 13.6286 4.34293 13.5396 4.31357L13.0298 4.1447C12.9591 4.12097 12.8815 4.14606 12.8383 4.20608C12.8267 4.2221 12.8188 4.23967 12.8134 4.25781C12.7117 4.18308 12.5812 4.12233 12.4588 4.17328C12.3847 4.2038 12.2964 4.28062 12.2964 4.47371C12.2964 4.62197 12.3533 4.78225 12.4136 4.9521C12.5137 5.23375 12.5763 5.44087 12.4704 5.53967C12.4118 5.59421 12.3533 5.61484 12.2963 5.60052C12.1915 5.57413 12.0878 5.43543 12.0187 5.22948C12.0156 5.22055 12.0094 5.21405 12.0051 5.20604C12.0408 4.94448 12.0253 4.62934 11.9532 4.27174C11.9349 4.18022 11.8456 4.12068 11.7533 4.13931C11.6613 4.15761 11.6016 4.24651 11.62 4.33803C11.731 4.88945 11.6977 5.3393 11.531 5.54137C11.4666 5.61955 11.3858 5.6558 11.2769 5.6558C11.2425 5.6558 11.219 5.64493 11.1956 5.61819C11.0616 5.46465 11.0621 4.96928 11.1054 4.66632C11.1123 4.61803 11.0977 4.56888 11.0654 4.5319C11.0331 4.49497 10.9864 4.47371 10.9371 4.47371C10.6448 4.47371 10.534 4.80419 10.4361 5.09574C10.3932 5.2239 10.3133 5.46217 10.2575 5.48692C10.1547 5.48692 10.0882 5.18678 10.0876 4.98015C10.0873 4.88697 10.0114 4.81161 9.91765 4.81161C9.91765 4.81161 9.9175 4.81161 9.91736 4.81161C9.82361 4.81161 9.74768 4.88712 9.74768 4.98029C9.74768 5.36978 9.88118 5.82462 10.2574 5.82462C10.5376 5.82462 10.6511 5.52118 10.7461 5.23919C10.7626 5.46343 10.8136 5.69578 10.9388 5.83928C11.0269 5.94022 11.1437 5.99345 11.2769 5.99345C11.4867 5.99345 11.6654 5.91115 11.7938 5.75547C11.8171 5.72733 11.8371 5.69496 11.8569 5.6623C11.9555 5.80167 12.0765 5.89363 12.2129 5.92784C12.2529 5.93789 12.2931 5.94298 12.3329 5.94298C12.4641 5.94298 12.5923 5.88921 12.703 5.7858C12.726 5.76426 12.7422 5.74082 12.7597 5.71767C12.8012 5.72946 12.8434 5.73645 12.8852 5.73645C13.0229 5.73645 13.1554 5.68137 13.2376 5.62891C13.3163 5.57878 13.339 5.47523 13.2891 5.39671C13.239 5.31838 13.1343 5.29495 13.0551 5.3441C13.0537 5.34478 12.9402 5.40962 12.8628 5.39438C12.863 5.20925 12.7956 5.01266 12.7341 4.83947C12.6991 4.74081 12.6632 4.63978 12.6462 4.55718C12.6602 4.56893 12.6739 4.58111 12.6862 4.59295C12.7524 4.6589 12.86 4.6589 12.9263 4.59295C12.9373 4.58203 12.9437 4.56878 12.951 4.55602C13.1271 4.79715 13.4894 5.30387 13.862 5.888C13.9331 6.60597 13.9955 7.52183 13.9955 8.52635C13.9955 8.61967 14.0716 8.69522 14.1655 8.69522C14.2593 8.69542 14.3354 8.61996 14.3354 8.52659Z" fill="#F5F5F5"/>
<path d="M14.5052 4.81158C14.5052 4.9049 14.5812 4.98046 14.6751 4.98046C14.7689 4.98046 14.845 4.90495 14.845 4.81158C14.845 4.61286 14.6886 4.2918 14.6572 4.22944C14.6152 4.14617 14.5132 4.11254 14.4292 4.15393C14.3453 4.19567 14.3112 4.29709 14.3532 4.38051C14.4145 4.50236 14.5052 4.7235 14.5052 4.81158Z" fill="#F5F5F5"/>
<path d="M13.7321 8.54506C13.6488 8.50284 13.5464 8.53632 13.504 8.61945C13.4858 8.65488 13.4575 8.69433 13.4336 8.71971C13.4261 8.6526 13.4441 8.51851 13.4783 8.40739C13.5011 8.33319 13.4702 8.25302 13.4033 8.21313C13.3367 8.17309 13.2508 8.18348 13.1957 8.23836L12.8559 8.57607C12.7896 8.64202 12.7896 8.74887 12.8559 8.81482C12.9223 8.88077 13.0298 8.88077 13.0962 8.81482L13.1048 8.80623C13.1195 8.87403 13.1476 8.93585 13.1958 8.9837C13.2595 9.04703 13.3365 9.08051 13.4165 9.08051C13.432 9.08051 13.4476 9.07915 13.4632 9.07673C13.6557 9.04572 13.7755 8.83482 13.8077 8.77095C13.8494 8.68768 13.8156 8.58699 13.7321 8.54506Z" fill="#F5F5F5"/>
<path d="M13.6662 7.1862H12.4687C12.4793 7.14418 12.4902 7.10404 12.5014 7.066C12.9789 6.96734 13.2628 6.81414 13.3462 6.60974C13.3751 6.53884 13.4052 6.39554 13.2823 6.23079C13.1715 6.08234 13.0152 6.01577 12.8528 6.04872C12.6113 6.09734 12.3962 6.35589 12.2418 6.76983C11.7622 6.85146 11.4552 7.02257 11.2608 7.19139C11.1918 6.49939 10.9216 6.08831 10.9084 6.06876C10.8563 5.99106 10.7507 5.9701 10.6728 6.02188C10.5947 6.07366 10.5737 6.17838 10.6256 6.25603C10.6287 6.26064 10.9369 6.72912 10.9369 7.51328C10.9369 8.28404 10.3185 8.86418 9.91746 8.86418C9.72669 8.86418 9.64315 8.63882 9.60648 8.44821C9.99915 8.17471 10.3456 7.85821 10.4221 7.55414C10.5257 7.14267 10.3954 6.83942 10.3092 6.63876C10.3051 6.62954 10.3009 6.61964 10.2966 6.6094C10.3002 6.6127 10.3037 6.61615 10.3072 6.61945C10.3734 6.6854 10.481 6.6854 10.5473 6.61945C10.6137 6.5535 10.6137 6.44664 10.5473 6.38069C10.448 6.28189 10.2552 6.1267 10.0798 6.19964C10.0057 6.23016 9.91746 6.30698 9.91746 6.50007C9.91746 6.58732 9.95413 6.67254 9.99661 6.77148C10.0731 6.94943 10.1683 7.17091 10.0924 7.47232C10.0475 7.65071 9.82713 7.86709 9.53626 8.08197C9.50506 8.04489 9.46004 8.02 9.4077 8.02H9.40741C9.31366 8.02015 9.23773 8.09551 9.23773 8.18868C9.23773 8.21906 9.2391 8.25152 9.24105 8.28486C8.87743 8.51891 8.46595 8.73554 8.14789 8.87928C8.06254 8.91791 8.02479 9.01797 8.06361 9.10289C8.09208 9.16506 8.1538 9.20184 8.21835 9.20184C8.24188 9.20184 8.26581 9.19708 8.28856 9.1867C8.38407 9.14356 8.83753 8.93358 9.30335 8.64668C9.38914 8.93615 9.57093 9.20194 9.91741 9.20194C10.325 9.20194 10.7874 8.87069 11.0543 8.37614C11.0865 8.43268 11.1235 8.48683 11.1677 8.53735C11.5954 9.02748 12.4307 9.03306 12.4661 9.03306C12.5576 9.03306 12.6326 8.96114 12.6359 8.8703C12.6391 8.77941 12.5695 8.70225 12.4782 8.69584C12.4769 8.6957 12.3415 8.68085 12.2662 8.59345C12.2207 8.5407 12.2026 8.4681 12.2106 8.37168C12.228 8.16359 12.9034 8.00801 13.4987 7.99884C13.5696 7.99768 13.6324 7.95298 13.6562 7.88655L13.8261 7.41166C13.8446 7.36003 13.8366 7.30247 13.8048 7.25783C13.7733 7.21289 13.7214 7.1862 13.6662 7.1862ZM12.9204 6.37982C12.9236 6.37919 12.9279 6.37817 12.9333 6.37817C12.9496 6.37817 12.9752 6.38608 13.0094 6.43194C13.0158 6.44053 13.0365 6.46984 13.0313 6.48275C13.0118 6.53055 12.8945 6.60955 12.6501 6.68113C12.7576 6.47265 12.8627 6.39137 12.9204 6.37982ZM11.8943 8.59961C11.7217 8.54385 11.5457 8.45549 11.424 8.31548C11.2901 8.16165 11.2407 7.96706 11.2731 7.72083C11.278 7.70787 11.2891 7.68239 11.3086 7.64925C11.5478 7.62746 12.187 7.72117 12.2313 7.9031C12.0342 8.00311 11.8889 8.14375 11.8721 8.34368C11.8637 8.44399 11.874 8.52891 11.8943 8.59961Z" fill="#F5F5F5"/>
<path d="M15.516 4.75817L15.3461 4.25154C15.3187 4.17011 15.2337 4.12144 15.1494 4.13988C15.0647 4.15788 15.0072 4.23616 15.0158 4.32176C15.1331 5.48701 15.3548 7.75941 15.3548 8.02C15.3548 8.254 14.9361 8.71472 14.2594 9.05102C14.1755 9.09275 14.1414 9.19413 14.1834 9.27759C14.2132 9.3368 14.2732 9.37091 14.3356 9.37091C14.3611 9.37091 14.387 9.36514 14.4114 9.3531C15.0295 9.04592 15.6947 8.49775 15.6947 8.02C15.6947 7.77052 15.5211 5.97534 15.4216 4.96694C15.5021 4.93277 15.5442 4.84232 15.516 4.75817Z" fill="#F5F5F5"/>
<path d="M16.9337 6.28192C16.9664 6.31443 17.0099 6.33142 17.0539 6.33142C17.0826 6.33142 17.1116 6.32419 17.1379 6.30929C17.2043 6.27168 17.2373 6.19452 17.2185 6.12081C17.1881 6.00211 17.1779 5.85366 17.1941 5.793C17.2792 5.79562 17.3582 5.73545 17.3707 5.6482C17.3839 5.55585 17.3194 5.47025 17.2265 5.4571C17.1142 5.44195 17.0155 5.47476 16.9466 5.5509C16.902 5.6004 16.8755 5.66387 16.861 5.73215L16.6643 5.53658C16.5979 5.47063 16.4904 5.47063 16.424 5.53658C16.3577 5.60253 16.3577 5.70939 16.424 5.77534L16.9337 6.28192Z" fill="#F5F5F5"/>
<path d="M17.316 6.45797L16.6789 6.9118C16.6027 6.96606 16.585 7.0716 16.6397 7.14745C16.6729 7.19346 16.7251 7.21787 16.778 7.21787C16.8123 7.21787 16.8469 7.20763 16.8769 7.18623L17.514 6.7324C17.5902 6.67814 17.6079 6.5726 17.5532 6.49675C17.4984 6.42085 17.3921 6.40319 17.316 6.45797Z" fill="#F5F5F5"/>
<path d="M17.2594 7.09307C17.2059 7.16149 17.2136 7.25782 17.2743 7.31702C17.2816 7.32925 17.3147 7.39384 17.3087 7.5601C17.3054 7.65341 17.3787 7.73159 17.4725 7.73489C17.4745 7.73504 17.4766 7.73504 17.4786 7.73504C17.5698 7.73504 17.6451 7.66327 17.6484 7.57228C17.6607 7.22763 17.5473 7.10165 17.4979 7.06351C17.424 7.00601 17.317 7.01955 17.2594 7.09307Z" fill="#F5F5F5"/>
<path d="M18.7422 8.33659C18.836 8.33659 18.9121 8.26108 18.9121 8.16771C18.9121 7.91857 18.8992 7.64041 18.8782 7.35104C19.0467 7.62542 19.1866 7.87839 19.2764 8.08643C19.3039 8.15058 19.3666 8.18882 19.4326 8.18882C19.4549 8.18882 19.4776 8.18455 19.4994 8.17514C19.5856 8.13835 19.6256 8.03906 19.5886 7.95351C19.433 7.59271 19.1423 7.11481 18.8112 6.62143C18.7445 6.00164 18.6575 5.39431 18.5898 4.95868C18.6258 4.96232 18.6631 4.95358 18.6959 4.93243C18.7495 4.89826 18.7747 4.83891 18.7711 4.77986C18.7754 4.79645 18.7801 4.8131 18.7899 4.82838C18.7911 4.83003 18.9002 5.00925 18.8518 5.24184C18.8327 5.33302 18.8919 5.42241 18.9838 5.44134C18.9954 5.44362 19.007 5.44483 19.0183 5.44483C19.0972 5.44483 19.1679 5.3899 19.1846 5.31012C19.2613 4.94121 19.0841 4.65893 19.0766 4.64704C19.0262 4.56852 18.9211 4.54547 18.8419 4.59526C18.7881 4.62937 18.7626 4.68877 18.766 4.74797C18.7617 4.73128 18.7568 4.71449 18.7469 4.6992L18.4601 4.25595C18.4163 4.18831 18.3306 4.16094 18.2554 4.19C18.18 4.21936 18.1358 4.29735 18.1498 4.3765C18.1522 4.38979 18.2821 5.13081 18.3972 6.02396C18.2669 5.84115 18.1367 5.66243 18.0103 5.4918C17.9898 5.23631 17.9692 5.00012 17.9514 4.8048C17.9608 4.80203 17.97 4.79839 17.979 4.79393C18.063 4.7522 18.0971 4.65077 18.055 4.56735L17.8851 4.22965C17.8484 4.15676 17.7647 4.12046 17.6859 4.14288C17.6072 4.16564 17.5559 4.24081 17.564 4.32195C17.5843 4.52349 17.6054 4.74657 17.6261 4.98091C17.5186 4.84013 17.4192 4.71124 17.3341 4.6021C17.3507 4.58793 17.3649 4.57031 17.3753 4.5495C17.4173 4.46608 17.3833 4.36465 17.2994 4.32292L16.9596 4.15405C16.8883 4.11877 16.8017 4.13725 16.7514 4.19893C16.7013 4.26061 16.701 4.34864 16.7509 4.41066C16.7601 4.42201 17.1785 4.9432 17.6789 5.61589C17.7657 6.73159 17.8235 7.89222 17.7419 8.13554C17.7269 8.18004 17.7009 8.2325 17.6764 8.23434C17.5737 8.24851 17.3286 8.02033 17.2055 7.77575C17.1346 7.63493 17.0325 7.62027 16.9779 7.6227C16.7953 7.63391 16.7241 7.8336 16.5946 8.1961C16.5017 8.45582 16.3864 8.77872 16.2569 8.91081C16.1868 8.8256 16.096 8.53972 16.0456 8.24599C16.0693 8.31092 16.1305 8.35789 16.204 8.35789C16.2978 8.35789 16.3739 8.28238 16.3739 8.18901C16.3739 7.93716 16.1967 6.0193 16.0977 4.96824C16.1804 4.93524 16.2239 4.84343 16.1953 4.75831L16.0254 4.25168C15.9981 4.17025 15.9142 4.12221 15.829 4.13987C15.7445 4.15768 15.6868 4.23567 15.695 4.32113C15.8105 5.52577 16.027 7.85257 16.0337 8.17373C16.0333 8.17082 16.0327 8.168 16.0323 8.16509C16.0191 8.07274 15.9324 8.00941 15.8401 8.02179C15.7472 8.03513 15.6827 8.12059 15.6959 8.21289C15.7455 8.55807 15.8724 9.15151 16.1643 9.24818C16.1874 9.25594 16.2184 9.26283 16.2549 9.26283C16.3219 9.26283 16.4069 9.23925 16.494 9.15268C16.679 8.96881 16.8043 8.61819 16.9148 8.30902C16.9397 8.2391 16.9693 8.15631 16.9972 8.08541C17.153 8.31164 17.425 8.5933 17.7005 8.57127C17.7974 8.56438 17.9736 8.5126 18.0642 8.24244C18.1546 7.97307 18.1189 7.03362 18.058 6.13421C18.2012 6.33361 18.3444 6.53782 18.4811 6.73945C18.5342 7.24515 18.5721 7.75178 18.5721 8.16791C18.5723 8.26103 18.6484 8.33659 18.7422 8.33659Z" fill="#F5F5F5"/>
<path d="M20.0317 7.44841C19.9113 6.55725 19.7437 5.52492 19.6375 4.89134C19.6854 4.90309 19.7377 4.89348 19.7798 4.8613C19.8545 4.80477 19.8688 4.69869 19.8118 4.62468L19.5038 4.2236C19.4563 4.16192 19.3725 4.14018 19.3008 4.17134C19.229 4.20249 19.188 4.27839 19.2013 4.35506C19.2044 4.37234 19.5074 6.10584 19.6948 7.49324C19.7664 8.02341 19.6619 8.49723 19.4151 8.7604C19.2564 8.92947 19.0462 9.00594 18.7918 8.99124C18.6984 8.98629 18.6174 9.05617 18.6115 9.1492C18.6057 9.24223 18.6767 9.32239 18.7704 9.32827C18.7991 9.33011 18.8274 9.33089 18.8554 9.33089C19.1759 9.33089 19.4539 9.21418 19.6636 8.99051C19.9839 8.64927 20.118 8.08708 20.0317 7.44841Z" fill="#F5F5F5"/>
<path d="M18.1626 8.56153C18.1001 8.62898 18.1049 8.73516 18.171 8.79887C18.1802 8.80775 18.1912 8.82527 18.1913 8.83386C18.1914 8.83862 18.1845 8.85284 18.1656 8.87162C18.0993 8.93757 18.0993 9.04442 18.1656 9.11037C18.1988 9.14337 18.2423 9.15987 18.2858 9.15987C18.3292 9.15987 18.3727 9.14337 18.4059 9.11037C18.5137 9.00332 18.5335 8.89467 18.531 8.82226C18.5258 8.66644 18.419 8.56584 18.3977 8.54721C18.3283 8.48718 18.225 8.49441 18.1626 8.56153Z" fill="#F5F5F5"/>
<path d="M17.5635 12.2648H17.3936H16.3742V12.0959C16.3742 12.0026 16.2981 11.9271 16.2042 11.9271C16.1104 11.9271 16.0343 12.0026 16.0343 12.0959V12.2648H7.02905C7.36885 12.6025 8.04848 12.7714 8.55825 12.7714C8.92382 12.7714 13.484 12.7714 16.0343 12.7714V13.1091C16.0343 13.2025 16.1104 13.278 16.2042 13.278H17.5635C17.8446 13.278 18.0733 13.0508 18.0733 12.7714C18.0733 12.492 17.8446 12.2648 17.5635 12.2648ZM17.5635 12.9403H16.3741V12.7714C17.193 12.7714 17.7334 12.7714 17.7334 12.7714L17.7029 12.6805C17.7205 12.7071 17.7334 12.7371 17.7334 12.7714C17.7334 12.8646 17.6572 12.9403 17.5635 12.9403Z" fill="#F5F5F5"/>
</svg>
