<svg width="23" height="23" viewBox="0 0 23 23" fill="none" xmlns="http://www.w3.org/2000/svg">
<path d="M23 3.83325H0V19.1667H23V3.83325Z" fill="#F0F0F0"/>
<path d="M23 5.74976H0V7.66626H23V5.74976Z" fill="#D80027"/>
<path d="M23 9.58325H0V11.4998H23V9.58325Z" fill="#D80027"/>
<path d="M23 13.4163H0V15.3328H23V13.4163Z" fill="#D80027"/>
<path d="M23 17.2498H0V19.1662H23V17.2498Z" fill="#D80027"/>
<path d="M11.5 3.83325H0V12.0898H11.5V3.83325Z" fill="#2E52B2"/>
<path d="M4.48412 7.21545L4.29891 7.78524H3.69983L4.18458 8.13721L3.99937 8.70695L4.48412 8.35499L4.96855 8.70695L4.78339 8.13721L5.26814 7.78524H4.66902L4.48412 7.21545Z" fill="#F0F0F0"/>
<path d="M4.66902 9.84147L4.48412 9.27173L4.29891 9.84147H3.69983L4.18458 10.1935L3.99937 10.7632L4.48412 10.4112L4.96855 10.7632L4.78339 10.1935L5.26814 9.84147H4.66902Z" fill="#F0F0F0"/>
<path d="M2.1372 9.84147L1.95226 9.27173L1.76705 9.84147H1.16797L1.65272 10.1935L1.46751 10.7632L1.95226 10.4112L2.43674 10.7632L2.25157 10.1935L2.73623 9.84147H2.1372Z" fill="#F0F0F0"/>
<path d="M1.95226 7.21545L1.76705 7.78524H1.16797L1.65272 8.13721L1.46751 8.70695L1.95226 8.35499L2.43674 8.70695L2.25157 8.13721L2.73623 7.78524H2.1372L1.95226 7.21545Z" fill="#F0F0F0"/>
<path d="M4.48412 5.15924L4.29891 5.72907H3.69983L4.18458 6.08108L3.99937 6.65083L4.48412 6.29882L4.96855 6.65083L4.78339 6.08108L5.26814 5.72907H4.66902L4.48412 5.15924Z" fill="#F0F0F0"/>
<path d="M1.95226 5.15924L1.76705 5.72907H1.16797L1.65272 6.08108L1.46751 6.65083L1.95226 6.29882L2.43674 6.65083L2.25157 6.08108L2.73623 5.72907H2.1372L1.95226 5.15924Z" fill="#F0F0F0"/>
<path d="M7.01594 7.21545L6.83077 7.78524H6.23169L6.7164 8.13721L6.53127 8.70695L7.01594 8.35499L7.50046 8.70695L7.31525 8.13721L7.8 7.78524H7.20092L7.01594 7.21545Z" fill="#F0F0F0"/>
<path d="M7.20092 9.84147L7.01594 9.27173L6.83077 9.84147H6.23169L6.7164 10.1935L6.53127 10.7632L7.01594 10.4112L7.50046 10.7632L7.31525 10.1935L7.8 9.84147H7.20092Z" fill="#F0F0F0"/>
<path d="M9.73286 9.84147L9.54791 9.27173L9.3627 9.84147H8.76367L9.24833 10.1935L9.06316 10.7632L9.54791 10.4112L10.0324 10.7632L9.84718 10.1935L10.3319 9.84147H9.73286Z" fill="#F0F0F0"/>
<path d="M9.54791 7.21545L9.3627 7.78524H8.76367L9.24833 8.13721L9.06316 8.70695L9.54791 8.35499L10.0324 8.70695L9.84718 8.13721L10.3319 7.78524H9.73286L9.54791 7.21545Z" fill="#F0F0F0"/>
<path d="M7.01594 5.15924L6.83077 5.72907H6.23169L6.7164 6.08108L6.53127 6.65083L7.01594 6.29882L7.50046 6.65083L7.31525 6.08108L7.8 5.72907H7.20092L7.01594 5.15924Z" fill="#F0F0F0"/>
<path d="M9.54791 5.15924L9.3627 5.72907H8.76367L9.24833 6.08108L9.06316 6.65083L9.54791 6.29882L10.0324 6.65083L9.84718 6.08108L10.3319 5.72907H9.73286L9.54791 5.15924Z" fill="#F0F0F0"/>
</svg>
