<svg width="83" height="83" viewBox="0 0 83 83" fill="none" xmlns="http://www.w3.org/2000/svg">
<path d="M0 0.86084H57.1392C70.9463 0.86084 82.1392 12.0537 82.1392 25.8608V83H25C11.1929 83 0 71.8071 0 58V0.86084Z" fill="#28292C"/>
<g clip-path="url(#clip0)">
<path d="M60.784 42.8001H42.9911C42.5381 42.8001 42.1708 43.1674 42.1708 43.6205V61.4277C42.1708 61.8808 42.5381 62.2481 42.9911 62.2481C47.963 62.2481 52.6373 60.3104 56.1529 56.792C59.6683 53.2737 61.6044 48.5959 61.6044 43.6205C61.6044 43.1674 61.2371 42.8001 60.784 42.8001ZM43.8115 60.5877V58.3158L43.9285 58.4328C44.0887 58.593 44.2987 58.6731 44.5086 58.6731C44.7185 58.6731 44.9285 58.593 45.0887 58.4328C45.409 58.1125 45.409 57.593 45.0887 57.2726L43.8114 55.9953V51.962L48.2656 56.4161C48.4258 56.5763 48.6357 56.6564 48.8456 56.6564C49.0556 56.6564 49.2656 56.5763 49.4257 56.4161C49.7461 56.0957 49.7461 55.5763 49.4257 55.2559L43.8114 49.6415V45.608L47.7109 49.5075C47.8711 49.6677 48.0811 49.7478 48.291 49.7478C48.5009 49.7478 48.7109 49.6676 48.8711 49.5075C49.1914 49.1872 49.1914 48.6677 48.8712 48.3473L44.9645 44.4406H48.9979L54.6194 50.0621C54.7796 50.2223 54.9896 50.3024 55.1995 50.3024C55.4094 50.3024 55.6194 50.2222 55.7796 50.0621C56.0999 49.7417 56.0999 49.2223 55.7796 48.9018L51.3182 44.4406H55.3517L56.6361 45.725C56.7963 45.8852 57.0063 45.9653 57.2162 45.9653C57.4261 45.9653 57.6362 45.8852 57.7963 45.725C58.1166 45.4047 58.1166 44.8852 57.7963 44.5648L57.6721 44.4406H59.9439C59.528 53.1562 52.5195 60.1713 43.8115 60.5877Z" fill="#9D9EA1"/>
<path d="M38.229 25.0144C33.2536 25.0144 28.5758 26.9504 25.0576 30.4658C21.5392 33.9814 19.6014 38.6557 19.6014 43.6276C19.6014 48.5995 21.5392 53.2738 25.0576 56.7895C28.5758 60.3049 33.2536 62.2409 38.229 62.2409C38.6821 62.2409 39.0494 61.8736 39.0494 61.4205V25.8347C39.0494 25.3817 38.6821 25.0144 38.229 25.0144ZM37.4087 60.5807C28.4215 60.1516 21.2422 52.7116 21.2422 43.6276C21.2422 34.5436 28.4215 27.1037 37.4087 26.6746V60.5807Z" fill="#9D9EA1"/>
<path d="M42.6399 20.8851V38.678H60.4471C60.4472 28.8513 52.4746 20.8851 42.6399 20.8851Z" fill="#FFC700"/>
</g>
<defs>
<clipPath id="clip0">
<rect width="42.003" height="42.003" fill="white" transform="translate(19.6014 20.4622)"/>
</clipPath>
</defs>
</svg>
