<svg width="83" height="83" viewBox="0 0 83 83" fill="none" xmlns="http://www.w3.org/2000/svg">
<path d="M0 0H57.1392C70.9463 0 82.1392 11.1929 82.1392 25V82.1392H25C11.1929 82.1392 0 70.9463 0 57.1392V0Z" fill="#28292C"/>
<g clip-path="url(#clip0)">
<path d="M54.195 42.9808C54.195 45.7019 53.3974 48.2395 52.0232 50.3736L40.5 42.9808V29.2859C48.0514 29.2859 54.195 35.4295 54.195 42.9808Z" fill="#FFC700"/>
<path d="M56.0414 33.849L56.9056 32.9847C57.9605 31.9298 57.9605 30.2132 56.9056 29.1582L54.048 26.3006C53.5369 25.7896 52.8575 25.5082 52.1347 25.5082C51.412 25.5082 50.7324 25.7896 50.2215 26.3006L49.2833 27.2387C48.0405 26.5429 46.7215 25.9991 45.3489 25.618H45.3489V24.8489C45.3489 22.1752 43.1737 20 40.5 20C37.8262 20 35.651 22.1752 35.651 24.849V25.618H35.6511C34.2785 25.9991 32.9594 26.543 31.7167 27.2388L30.7785 26.3008C30.2675 25.7897 29.588 25.5083 28.8653 25.5083C28.1425 25.5083 27.463 25.7896 26.952 26.3007L24.0944 29.1583C23.0395 30.2132 23.0395 31.9298 24.0944 32.9848L24.9587 33.849C23.3432 36.5875 22.4807 39.7176 22.4807 42.9807C22.4807 47.7938 24.355 52.3189 27.7584 55.7223C31.1618 59.1257 35.6869 61 40.5 61C45.3131 61 49.8381 59.1257 53.2415 55.7223C56.6449 52.3189 58.5192 47.7939 58.5192 42.9807C58.5193 39.7176 57.6567 36.5875 56.0414 33.849ZM51.354 27.4332C51.5625 27.2246 51.8398 27.1098 52.1347 27.1098C52.4297 27.1098 52.7069 27.2246 52.9154 27.4333L55.773 30.2908C55.9816 30.4994 56.0965 30.7767 56.0965 31.0716C56.0965 31.3665 55.9816 31.6438 55.773 31.8524L55.1463 32.4791C54.5779 31.69 53.9428 30.9405 53.2416 30.2393C52.4456 29.4434 51.5875 28.7322 50.6795 28.1078L51.354 27.4332ZM37.2526 24.849C37.2526 23.0583 38.7093 21.6016 40.5 21.6016C42.2906 21.6016 43.7474 23.0583 43.7474 24.849V25.2527C42.6866 25.0607 41.601 24.9615 40.5 24.9615C39.399 24.9615 38.3134 25.0607 37.2526 25.2527V24.849ZM25.2269 31.8523C25.0184 31.6438 24.9035 31.3664 24.9035 31.0715C24.9035 30.7766 25.0183 30.4993 25.2269 30.2908L28.0845 27.4332C28.293 27.2246 28.5703 27.1097 28.8653 27.1097C29.1602 27.1097 29.4375 27.2246 29.6459 27.4332L30.3205 28.1077C29.4124 28.732 28.5544 29.4431 27.7584 30.2392C27.0573 30.9404 26.4221 31.6899 25.8537 32.479L25.2269 31.8523ZM40.5 59.3984C31.4472 59.3984 24.0823 52.0335 24.0823 42.9807C24.0823 33.928 31.4472 26.563 40.5 26.563C49.5527 26.563 56.9178 33.928 56.9178 42.9807C56.9178 52.0335 49.5527 59.3984 40.5 59.3984Z" fill="#9D9EA1"/>
<path d="M40.5 28.4851C32.5071 28.4851 26.0043 34.9878 26.0043 42.9808C26.0043 50.9738 32.5071 57.4766 40.5 57.4766C45.4492 57.4766 50.0087 54.9832 52.6965 50.8072C54.2007 48.4713 54.9958 45.765 54.9958 42.9808C54.9958 34.9878 48.493 28.4851 40.5 28.4851ZM51.3498 49.9403C48.9581 53.6564 44.9021 55.875 40.5 55.875C33.3902 55.875 27.6058 50.0907 27.6058 42.9808C27.6058 35.8709 33.3902 30.0866 40.5 30.0866C47.6098 30.0866 53.3942 35.8709 53.3942 42.9808C53.3942 45.4568 52.6873 47.8633 51.3498 49.9403Z" fill="#9D9EA1"/>
</g>
<defs>
<clipPath id="clip0">
<rect width="41" height="41" fill="white" transform="translate(20 20)"/>
</clipPath>
</defs>
</svg>
