<svg width="83" height="83" viewBox="0 0 83 83" fill="none" xmlns="http://www.w3.org/2000/svg">
<path d="M0 0.86084H57.1392C70.9463 0.86084 82.1392 12.0537 82.1392 25.8608V83H25C11.1929 83 0 71.8071 0 58V0.86084Z" fill="#28292C"/>
<g clip-path="url(#clip0)">
<path d="M56.5337 49.5458C59.8902 49.5458 62.6209 46.7711 62.6209 43.3606C62.6209 41.9038 62.1121 40.4822 61.1883 39.3572C60.4787 38.4932 59.5598 37.8452 58.5395 37.4774C58.8445 36.4804 59.024 35.5096 59.024 34.2626C59.024 27.1597 53.3479 21.3811 46.3709 21.3811C42.0006 21.3811 37.9747 23.6634 35.6648 27.3935C34.3649 26.6912 32.9156 26.3236 31.4243 26.3236C26.4483 26.3236 22.4 30.4237 22.4 35.4633C22.4 36.1874 22.4833 36.9032 22.6481 37.5999C21.3657 38.3118 19.5182 39.9327 19.5182 43.3606C19.5182 46.7711 22.2489 49.5458 25.6054 49.5458H29.8497V53.8283H26.1079C25.6429 53.8283 25.266 54.2052 25.266 54.6701C25.266 55.135 25.6429 55.512 26.1079 55.512H30.6915C31.1564 55.512 31.5333 55.135 31.5333 54.6701V49.5458H35.6458V54.0432C35.6458 54.5081 36.0227 54.8851 36.4877 54.8851C36.9527 54.8851 37.3295 54.5081 37.3295 54.0432V49.5458H44.8095V56.5688C44.8095 57.0336 45.1864 57.4106 45.6513 57.4106C46.1163 57.4106 46.4932 57.0336 46.4932 56.5688V49.5458H50.6057V54.6701C50.6057 55.135 50.9826 55.512 51.4475 55.512H56.0312C56.4961 55.512 56.873 55.135 56.873 54.6701C56.873 54.2052 56.4961 53.8283 56.0312 53.8283H52.2894V49.5458H56.5337ZM21.2019 43.3606C21.2019 40.5146 22.7783 39.3525 23.8174 38.896H27.7702C28.2351 38.896 28.612 38.5191 28.612 38.0542C28.612 37.5892 28.2351 37.2123 27.7702 37.2123H24.2866C24.1518 36.6426 24.0837 36.0566 24.0837 35.4634C24.0837 31.3521 27.3767 28.0074 31.4243 28.0074C32.8806 28.0074 34.2879 28.4395 35.4936 29.257C35.6917 29.3914 35.9376 29.435 36.1697 29.3771C36.4019 29.3192 36.5985 29.1651 36.7103 28.9536C38.6301 25.3214 42.3319 23.065 46.3709 23.065C52.4195 23.065 57.3403 28.0883 57.3403 34.2628C57.3403 35.4065 57.1661 36.2632 56.8578 37.2124H53.3103C52.8454 37.2124 52.4685 37.5893 52.4685 38.0543C52.4685 38.5192 52.8454 38.8961 53.3103 38.8961H57.378C59.4121 39.3067 60.9372 41.2126 60.9372 43.3606C60.9372 45.8427 58.9618 47.8621 56.5337 47.8621H25.6054C23.1773 47.8621 21.2019 45.8427 21.2019 43.3606Z" fill="#9D9EA2"/>
<path d="M59.6273 57.597C61.2403 56.6609 61.789 54.5945 60.8529 52.9815C59.9168 51.3686 57.8504 50.8198 56.2375 51.7559C54.6245 52.692 54.0758 54.7584 55.0119 56.3714C55.9479 57.9843 58.0143 58.533 59.6273 57.597Z" fill="#FFC700"/>
<path d="M27.4719 55.5201C27.9306 53.7132 26.8377 51.8766 25.0308 51.4178C23.2239 50.9591 21.3873 52.052 20.9285 53.8589C20.4698 55.6658 21.5627 57.5024 23.3696 57.9612C25.1765 58.4199 27.0131 57.327 27.4719 55.5201Z" fill="#FFC700"/>
<path d="M37.5886 59.7574C39.3488 59.1439 40.2785 57.2196 39.665 55.4593C39.0515 53.699 37.1272 52.7694 35.3669 53.3829C33.6067 53.9964 32.677 55.9207 33.2905 57.6809C33.904 59.4412 35.8283 60.3709 37.5886 59.7574Z" fill="#FFC700"/>
<path d="M49.0279 59.5464C49.2703 57.6966 47.9673 56.0005 46.1175 55.7581C44.2677 55.5157 42.5717 56.8187 42.3292 58.6685C42.0868 60.5183 43.3899 62.2143 45.2396 62.4567C47.0894 62.6992 48.7855 61.3961 49.0279 59.5464Z" fill="#FFC700"/>
</g>
<defs>
<clipPath id="clip0">
<rect width="43.1027" height="43.1027" fill="white" transform="translate(19.5182 20.3791)"/>
</clipPath>
</defs>
</svg>
