<svg width="70" height="46" viewBox="0 0 70 46" fill="none" xmlns="http://www.w3.org/2000/svg">
<path d="M69.3796 13.1624C66.1213 -2.63053 35.2296 -3.63159 15.3187 8.40034V9.73042C35.2085 -0.421905 63.422 -0.356277 65.9908 14.1879C66.8521 19.0007 64.121 24.0147 59.2416 26.9024V30.6765C65.1093 28.5405 71.1286 21.6285 69.3796 13.1624ZM33.1862 40.8052C19.4515 42.0626 5.13225 40.0806 3.12494 29.426C2.14288 24.1722 4.55748 18.6008 7.75578 15.1382V13.2884C1.99478 18.3024 -1.12859 24.6509 0.672437 32.1465C2.96978 41.7651 15.2561 47.2105 34.0131 45.4027C41.4376 44.6878 51.1489 42.3155 57.9052 38.6342V33.4049C51.7721 37.0311 41.6342 40.029 33.1871 40.8052" fill="#444957"/>
<path d="M56.7926 10.8654H53.1915V26.7869C53.1915 28.6534 54.0995 30.2766 56.7926 30.5365V10.8654ZM13.9029 16.6792H10.2938L10.2903 27.0809C10.2903 28.9535 11.2036 30.5741 13.9029 30.8305V16.6792ZM10.2938 14.7383H13.8923V11.3475H10.2938V14.7383ZM35.4738 30.6668C32.5603 30.6668 31.3279 28.6534 31.3279 26.6705V12.8578H34.8955V16.6757H37.5843V19.5406H34.8955V26.4517C34.8955 27.262 35.2808 27.7101 36.1315 27.7101H37.5843V30.6668H35.4738ZM44.9462 19.3726C43.7244 19.3726 42.7882 19.9982 42.3888 20.8392C42.1578 21.3449 42.0715 21.7413 42.0477 22.3635H47.5468C47.4781 20.8392 46.7825 19.3726 44.9462 19.3726ZM42.0477 24.7804C42.0477 26.5917 43.1875 27.9288 45.2089 27.9288C46.7931 27.9288 47.5742 27.4913 48.4901 26.5917L50.6975 28.6805C49.2826 30.0683 47.7981 30.9092 45.1842 30.9092C41.7656 30.9092 38.4932 29.0603 38.4932 23.6629C38.4932 19.0479 41.3556 16.4403 45.1049 16.4403C48.9177 16.4403 51.1083 19.4925 51.1083 23.5019V24.7804H42.0468H42.0477ZM23.6001 19.5406C24.6474 19.5406 25.0846 20.0534 25.0846 20.8873V30.6878H28.655V20.8654C28.655 18.8764 27.5883 16.6827 24.4499 16.6827L17.0748 16.6783V30.6861H20.6451V19.5406H23.6001Z" fill="#444957"/>
</svg>
