<svg width="203" height="181" viewBox="0 0 203 181" fill="none" xmlns="http://www.w3.org/2000/svg">
<path d="M101.901 2.53345L38.1947 41.6599C38.1947 41.6599 38.1947 122.358 101.901 166.375C165.608 122.358 165.608 41.6599 165.608 41.6599L101.901 2.53345Z" fill="#E0B003"/>
<path opacity="0.04" d="M102.282 2.53345L101.193 3.20228V165.612C101.554 165.867 101.916 166.123 102.282 166.375C165.989 122.358 165.989 41.6599 165.989 41.6599L102.282 2.53345Z" fill="black"/>
<g opacity="0.7">
<path opacity="0.7" d="M86.4784 81.819L98.4881 92.8061L113.376 71.3713L119.381 76.3656L98.4881 102.795L81.4743 83.8167L86.4784 81.819Z" fill="url(#paint0_linear)"/>
</g>
<path d="M89.313 82.479L99.0551 91.3915L112.856 71.1355L117.728 75.1867L99.0551 99.494L85.2537 84.0995L89.313 82.479Z" fill="#28292C"/>
<path opacity="0.5" d="M39.0433 11.3054C38.8481 11.2206 38.6909 11.067 38.6017 10.8739C38.5125 10.6809 38.4976 10.4618 38.5597 10.2585C38.5698 10.2273 38.5761 10.1951 38.5786 10.1624C38.5843 10.0693 38.5597 9.97676 38.5086 9.89861C38.4575 9.82045 38.3825 9.7608 38.2948 9.7285C38.207 9.6962 38.1112 9.69296 38.0215 9.71927C37.9318 9.74557 37.8529 9.80002 37.7966 9.87454C37.7772 9.90098 37.7611 9.92961 37.7484 9.95983C37.6634 10.1547 37.5095 10.3116 37.3161 10.4006C37.1226 10.4896 36.9032 10.5045 36.6994 10.4425C36.6682 10.4325 36.6359 10.4262 36.6032 10.4237C36.5098 10.418 36.4171 10.4425 36.3388 10.4935C36.2605 10.5445 36.2007 10.6194 36.1684 10.7069C36.136 10.7945 36.1328 10.8901 36.1591 10.9797C36.1855 11.0692 36.24 11.1479 36.3147 11.2041C36.3412 11.2234 36.3699 11.2396 36.4002 11.2522C36.5954 11.337 36.7526 11.4906 36.8418 11.6837C36.931 11.8767 36.9459 12.0958 36.8838 12.2991C36.8737 12.3303 36.8674 12.3625 36.8649 12.3952C36.8592 12.4883 36.8838 12.5808 36.9349 12.659C36.986 12.7372 37.061 12.7968 37.1487 12.8291C37.2365 12.8614 37.3323 12.8646 37.422 12.8383C37.5118 12.812 37.5906 12.7576 37.6469 12.6831C37.6663 12.6566 37.6824 12.628 37.6951 12.5978C37.7801 12.4029 37.934 12.246 38.1274 12.157C38.3209 12.068 38.5403 12.0531 38.7441 12.1151C38.7753 12.1251 38.8076 12.1314 38.8403 12.1339C38.9337 12.1396 39.0264 12.1151 39.1047 12.0641C39.183 12.0131 39.2428 11.9383 39.2751 11.8507C39.3075 11.7631 39.3107 11.6675 39.2844 11.5779C39.258 11.4884 39.2035 11.4097 39.1288 11.3535C39.1023 11.3342 39.0736 11.3181 39.0433 11.3054Z" fill="#4D8AF0"/>
<path opacity="0.5" d="M4.55646 87.9219C4.36118 87.837 4.20398 87.6834 4.1148 87.4904C4.02562 87.2973 4.01068 87.0783 4.07282 86.875C4.08288 86.8438 4.08921 86.8115 4.0917 86.7789C4.09738 86.6857 4.07285 86.5932 4.02173 86.5151C3.97061 86.4369 3.89563 86.3773 3.8079 86.345C3.72016 86.3127 3.62433 86.3094 3.5346 86.3357C3.44488 86.362 3.36603 86.4165 3.30973 86.491C3.29037 86.5174 3.27421 86.5461 3.26157 86.5763C3.17652 86.7712 3.02263 86.9281 2.82919 87.0171C2.63576 87.1061 2.41629 87.121 2.21255 87.059C2.18132 87.0489 2.14901 87.0426 2.11629 87.0401C2.02294 87.0345 1.93025 87.059 1.85194 87.11C1.77363 87.161 1.71387 87.2358 1.6815 87.3234C1.64913 87.4109 1.64589 87.5066 1.67224 87.5961C1.6986 87.6857 1.75315 87.7644 1.82783 87.8206C1.85432 87.8399 1.88301 87.856 1.91329 87.8686C2.10857 87.9535 2.26577 88.1071 2.35495 88.3002C2.44413 88.4932 2.45907 88.7122 2.39692 88.9156C2.38687 88.9467 2.38054 88.979 2.37805 89.0117C2.37237 89.1048 2.3969 89.1973 2.44802 89.2755C2.49914 89.3536 2.57411 89.4133 2.66185 89.4456C2.74959 89.4779 2.84542 89.4811 2.93514 89.4548C3.02487 89.4285 3.10372 89.3741 3.16002 89.2995C3.17938 89.2731 3.19555 89.2445 3.20818 89.2142C3.29324 89.0193 3.44712 88.8625 3.64056 88.7735C3.83399 88.6845 4.05346 88.6695 4.2572 88.7316C4.28843 88.7416 4.32074 88.7479 4.35346 88.7504C4.44681 88.7561 4.5395 88.7316 4.61781 88.6806C4.69612 88.6296 4.75588 88.5547 4.78825 88.4672C4.82061 88.3796 4.82386 88.284 4.7975 88.1944C4.77115 88.1049 4.71659 88.0262 4.64192 87.97C4.61543 87.9507 4.58674 87.9345 4.55646 87.9219Z" fill="#4D8AF0"/>
<path opacity="0.5" d="M176.781 61.2933C177.563 61.2933 178.198 60.66 178.198 59.8788C178.198 59.0976 177.563 58.4644 176.781 58.4644C175.998 58.4644 175.363 59.0976 175.363 59.8788C175.363 60.66 175.998 61.2933 176.781 61.2933Z" fill="#F55F44"/>
<path opacity="0.5" d="M28.6759 162.427C29.4586 162.427 30.0931 161.794 30.0931 161.013C30.0931 160.232 29.4586 159.598 28.6759 159.598C27.8931 159.598 27.2586 160.232 27.2586 161.013C27.2586 161.794 27.8931 162.427 28.6759 162.427Z" fill="#F55F44"/>
<path opacity="0.5" d="M200.874 115.75C201.657 115.75 202.291 115.117 202.291 114.336C202.291 113.554 201.657 112.921 200.874 112.921C200.091 112.921 199.457 113.554 199.457 114.336C199.457 115.117 200.091 115.75 200.874 115.75Z" fill="#F55F44"/>
<path opacity="0.5" d="M166.361 18.1419C166.166 18.057 166.009 17.9034 165.92 17.7104C165.83 17.5173 165.816 17.2983 165.878 17.0949C165.888 17.0638 165.894 17.0315 165.897 16.9989C165.902 16.9057 165.878 16.8132 165.827 16.735C165.775 16.6569 165.7 16.5972 165.613 16.5649C165.525 16.5326 165.429 16.5294 165.339 16.5557C165.25 16.582 165.171 16.6364 165.115 16.711C165.095 16.7374 165.079 16.766 165.066 16.7963C164.981 16.9912 164.827 17.148 164.634 17.237C164.441 17.326 164.221 17.341 164.017 17.2789C163.986 17.2689 163.954 17.2626 163.921 17.2601C163.828 17.2544 163.735 17.2789 163.657 17.3299C163.578 17.3809 163.519 17.4558 163.486 17.5433C163.454 17.6309 163.451 17.7265 163.477 17.8161C163.503 17.9056 163.558 17.9843 163.633 18.0405C163.659 18.0598 163.688 18.076 163.718 18.0886C163.913 18.1735 164.071 18.3271 164.16 18.5201C164.249 18.7132 164.264 18.9322 164.202 19.1355C164.192 19.1667 164.185 19.1989 164.183 19.2316C164.177 19.3248 164.202 19.4173 164.253 19.4954C164.304 19.5736 164.379 19.6332 164.467 19.6655C164.554 19.6978 164.65 19.7011 164.74 19.6748C164.83 19.6485 164.909 19.594 164.965 19.5195C164.984 19.493 165 19.4644 165.013 19.4342C165.098 19.2393 165.252 19.0824 165.445 18.9934C165.639 18.9044 165.858 18.8895 166.062 18.9515C166.093 18.9615 166.126 18.9679 166.158 18.9703C166.252 18.976 166.344 18.9515 166.423 18.9005C166.501 18.8495 166.561 18.7747 166.593 18.6871C166.625 18.5995 166.629 18.5039 166.602 18.4144C166.576 18.3248 166.521 18.2461 166.447 18.1899C166.42 18.1706 166.392 18.1545 166.361 18.1419Z" fill="#4D8AF0"/>
<path opacity="0.5" d="M189.983 166.189C189.787 166.104 189.63 165.95 189.541 165.757C189.452 165.564 189.437 165.345 189.499 165.142C189.509 165.111 189.515 165.078 189.518 165.046C189.523 164.953 189.499 164.86 189.448 164.782C189.397 164.704 189.322 164.644 189.234 164.612C189.146 164.58 189.05 164.576 188.961 164.603C188.871 164.629 188.792 164.683 188.736 164.758C188.716 164.784 188.7 164.813 188.688 164.843C188.603 165.038 188.449 165.195 188.255 165.284C188.062 165.373 187.842 165.388 187.639 165.326C187.607 165.316 187.575 165.309 187.542 165.307C187.449 165.301 187.356 165.326 187.278 165.377C187.2 165.428 187.14 165.503 187.108 165.59C187.075 165.678 187.072 165.773 187.098 165.863C187.125 165.953 187.179 166.031 187.254 166.087C187.28 166.107 187.309 166.123 187.339 166.135C187.535 166.22 187.692 166.374 187.781 166.567C187.87 166.76 187.885 166.979 187.823 167.182C187.813 167.214 187.807 167.246 187.804 167.278C187.798 167.372 187.823 167.464 187.874 167.542C187.925 167.62 188 167.68 188.088 167.712C188.176 167.745 188.271 167.748 188.361 167.722C188.451 167.695 188.53 167.641 188.586 167.566C188.605 167.54 188.622 167.511 188.634 167.481C188.719 167.286 188.873 167.129 189.067 167.04C189.26 166.951 189.48 166.936 189.683 166.998C189.714 167.008 189.747 167.015 189.78 167.017C189.873 167.023 189.966 166.998 190.044 166.947C190.122 166.896 190.182 166.822 190.214 166.734C190.247 166.646 190.25 166.551 190.224 166.461C190.197 166.372 190.143 166.293 190.068 166.237C190.041 166.217 190.013 166.201 189.983 166.189Z" fill="#4D8AF0"/>
<path opacity="0.5" d="M2.90296 43.1306C2.70767 43.0458 2.55048 42.8922 2.4613 42.6991C2.37212 42.5061 2.35718 42.287 2.41932 42.0837C2.42938 42.0525 2.43571 42.0203 2.43819 41.9876C2.44388 41.8945 2.41934 41.802 2.36823 41.7238C2.31711 41.6456 2.24213 41.586 2.15439 41.5537C2.06666 41.5214 1.97083 41.5182 1.8811 41.5445C1.79138 41.5708 1.71253 41.6252 1.65623 41.6997C1.63687 41.7262 1.6207 41.7548 1.60806 41.785C1.52301 41.9799 1.36912 42.1368 1.17569 42.2258C0.982255 42.3148 0.762783 42.3297 0.559047 42.2677C0.527812 42.2577 0.495502 42.2513 0.462783 42.2489C0.369439 42.2432 0.276747 42.2677 0.198436 42.3187C0.120126 42.3697 0.0603616 42.4445 0.0279962 42.5321C-0.00436913 42.6197 -0.00761486 42.7153 0.0187404 42.8049C0.0450957 42.8944 0.099651 42.9731 0.174324 43.0293C0.200817 43.0486 0.229503 43.0647 0.259785 43.0774C0.45507 43.1622 0.612265 43.3158 0.701446 43.5089C0.790626 43.7019 0.805564 43.921 0.743421 44.1243C0.733366 44.1555 0.727032 44.1877 0.724549 44.2204C0.718867 44.3135 0.7434 44.406 0.794516 44.4842C0.845632 44.5623 0.920611 44.622 1.00835 44.6543C1.09609 44.6866 1.19191 44.6898 1.28164 44.6635C1.37137 44.6372 1.45022 44.5828 1.50652 44.5083C1.52588 44.4818 1.54204 44.4532 1.55468 44.423C1.63973 44.2281 1.79362 44.0712 1.98705 43.9822C2.18049 43.8932 2.39996 43.8783 2.6037 43.9403C2.63493 43.9503 2.66724 43.9566 2.69996 43.9591C2.7933 43.9648 2.886 43.9403 2.96431 43.8893C3.04262 43.8383 3.10238 43.7634 3.13474 43.6759C3.16711 43.5883 3.17035 43.4927 3.144 43.4031C3.11764 43.3136 3.06309 43.2349 2.98842 43.1787C2.96192 43.1594 2.93324 43.1432 2.90296 43.1306Z" fill="#4D8AF0"/>
<path opacity="0.5" d="M18.755 68.3655C19.5377 68.3655 20.1722 67.7323 20.1722 66.9511C20.1722 66.1699 19.5377 65.5366 18.755 65.5366C17.9722 65.5366 17.3377 66.1699 17.3377 66.9511C17.3377 67.7323 17.9722 68.3655 18.755 68.3655Z" fill="#28292C"/>
<path opacity="0.5" d="M201.583 79.6812C202.366 79.6812 203 79.0479 203 78.2668C203 77.4856 202.366 76.8523 201.583 76.8523C200.8 76.8523 200.166 77.4856 200.166 78.2668C200.166 79.0479 200.8 79.6812 201.583 79.6812Z" fill="#28292C"/>
<g opacity="0.5">
<path opacity="0.5" d="M138.514 0H137.806V4.00764H138.514V0Z" fill="#28292C"/>
<path opacity="0.5" d="M140.168 2.35738V1.65015L136.152 1.65015V2.35738H140.168Z" fill="#28292C"/>
</g>
<g opacity="0.5">
<path opacity="0.5" d="M141.113 157.005H140.404V161.013H141.113V157.005Z" fill="#28292C"/>
<path opacity="0.5" d="M142.766 159.362V158.655H138.751V159.362H142.766Z" fill="#28292C"/>
</g>
<g opacity="0.5">
<path opacity="0.5" d="M6.94442 165.492H6.23578V169.5H6.94442V165.492Z" fill="#28292C"/>
<path opacity="0.5" d="M8.59796 167.849V167.142H4.58236V167.849H8.59796Z" fill="#28292C"/>
</g>
<g opacity="0.5">
<path opacity="0.5" d="M168.277 93.3545H167.568V97.3621H168.277V93.3545Z" fill="#28292C"/>
<path opacity="0.5" d="M169.93 95.7118V95.0046H165.915V95.7118H169.93Z" fill="#28292C"/>
</g>
<path opacity="0.5" d="M187.931 29.0006L189.453 30.3929L191.609 27.2283L192.37 27.8612L189.453 31.6588L187.297 29.2538L187.931 29.0006Z" fill="#28292C"/>
<defs>
<linearGradient id="paint0_linear" x1="81.4743" y1="87.083" x2="119.381" y2="87.083" gradientUnits="userSpaceOnUse">
<stop stop-color="#808080" stop-opacity="0.25"/>
<stop offset="0.53514" stop-color="#808080" stop-opacity="0.12"/>
<stop offset="1" stop-color="#808080" stop-opacity="0.1"/>
</linearGradient>
</defs>
</svg>
