<svg width="199" height="157" viewBox="0 0 199 157" fill="none" xmlns="http://www.w3.org/2000/svg">
<g opacity="0.5">
<path opacity="0.5" d="M80.7302 0H12.0034C11.4783 0 11.0527 0.424009 11.0527 0.947051V105.413C11.0527 105.936 11.4783 106.36 12.0034 106.36H80.7302C81.2552 106.36 81.6808 105.936 81.6808 105.413V0.947051C81.6808 0.424009 81.2552 0 80.7302 0Z" fill="url(#paint0_linear)"/>
</g>
<path d="M79.824 0.780762H12.9075C12.3825 0.780762 11.9569 1.20477 11.9569 1.72781V104.043C11.9569 104.566 12.3825 104.99 12.9075 104.99H79.824C80.349 104.99 80.7746 104.566 80.7746 104.043V1.72781C80.7746 1.20477 80.349 0.780762 79.824 0.780762Z" fill="#1E1D1F"/>
<g opacity="0.5">
<path opacity="0.5" d="M31.6519 19.9785H19.7901C19.2651 19.9785 18.8395 20.4025 18.8395 20.9256V31.3726C18.8395 31.8956 19.2651 32.3196 19.7901 32.3196H31.6519C32.177 32.3196 32.6026 31.8956 32.6026 31.3726V20.9256C32.6026 20.4025 32.177 19.9785 31.6519 19.9785Z" fill="#FFC700"/>
</g>
<path d="M73.2983 19.9785H37.3283C36.9993 19.9785 36.7325 20.2442 36.7325 20.572V20.7572C36.7325 21.085 36.9993 21.3507 37.3283 21.3507H73.2983C73.6273 21.3507 73.894 21.085 73.894 20.7572V20.572C73.894 20.2442 73.6273 19.9785 73.2983 19.9785Z" fill="#484748"/>
<path d="M67.0283 24.0908H37.3283C36.9993 24.0908 36.7325 24.3565 36.7325 24.6843V24.8695C36.7325 25.1973 36.9993 25.463 37.3283 25.463H67.0283C67.3573 25.463 67.624 25.1973 67.624 24.8695V24.6843C67.624 24.3565 67.3573 24.0908 67.0283 24.0908Z" fill="#484748"/>
<g opacity="0.5">
<path opacity="0.5" d="M31.6519 39.1743H19.7901C19.2651 39.1743 18.8395 39.5983 18.8395 40.1214V50.5684C18.8395 51.0914 19.2651 51.5154 19.7901 51.5154H31.6519C32.177 51.5154 32.6026 51.0914 32.6026 50.5684V40.1214C32.6026 39.5983 32.177 39.1743 31.6519 39.1743Z" fill="#FFC700"/>
</g>
<path d="M73.2983 39.1743H37.3283C36.9993 39.1743 36.7325 39.44 36.7325 39.7678V39.953C36.7325 40.2808 36.9993 40.5465 37.3283 40.5465H73.2983C73.6273 40.5465 73.894 40.2808 73.894 39.953V39.7678C73.894 39.44 73.6273 39.1743 73.2983 39.1743Z" fill="#484748"/>
<path d="M73.2983 43.2866H37.3283C36.9993 43.2866 36.7325 43.5523 36.7325 43.8801V44.0653C36.7325 44.3931 36.9993 44.6588 37.3283 44.6588H73.2983C73.6273 44.6588 73.894 44.3931 73.894 44.0653V43.8801C73.894 43.5523 73.6273 43.2866 73.2983 43.2866Z" fill="#484748"/>
<g opacity="0.5">
<path opacity="0.5" d="M31.6519 58.3699H19.7901C19.2651 58.3699 18.8395 58.7939 18.8395 59.3169V69.764C18.8395 70.287 19.2651 70.711 19.7901 70.711H31.6519C32.177 70.711 32.6026 70.287 32.6026 69.764V59.3169C32.6026 58.7939 32.177 58.3699 31.6519 58.3699Z" fill="#FFC700"/>
</g>
<path d="M73.2983 58.3699H37.3283C36.9993 58.3699 36.7325 58.6356 36.7325 58.9634V59.1486C36.7325 59.4763 36.9993 59.7421 37.3283 59.7421H73.2983C73.6273 59.7421 73.894 59.4763 73.894 59.1486V58.9634C73.894 58.6356 73.6273 58.3699 73.2983 58.3699Z" fill="#484748"/>
<path d="M40.2668 62.4844H37.3283C36.9993 62.4844 36.7325 62.7501 36.7325 63.0779V63.2631C36.7325 63.5908 36.9993 63.8565 37.3283 63.8565H40.2668C40.5958 63.8565 40.8625 63.5908 40.8625 63.2631V63.0779C40.8625 62.7501 40.5958 62.4844 40.2668 62.4844Z" fill="#484748"/>
<g opacity="0.5">
<path opacity="0.5" d="M123.621 34.2454H55.9523C55.4273 34.2454 55.0017 34.6694 55.0017 35.1924V95.8163C55.0017 96.3393 55.4273 96.7634 55.9523 96.7634H123.621C124.146 96.7634 124.571 96.3393 124.571 95.8163V35.1924C124.571 34.6694 124.146 34.2454 123.621 34.2454Z" fill="url(#paint1_linear)"/>
</g>
<path d="M122.664 34.8726H57.0277C56.5026 34.8726 56.077 35.2966 56.077 35.8196V94.4799C56.077 95.003 56.5026 95.427 57.0277 95.427H122.664C123.189 95.427 123.615 95.003 123.615 94.4799V35.8196C123.615 35.2966 123.189 34.8726 122.664 34.8726Z" fill="#272727"/>
<g opacity="0.5">
<path opacity="0.5" d="M76.2686 47.8828H63.6589C63.1339 47.8828 62.7083 48.3068 62.7083 48.8299V59.9461C62.7083 60.4692 63.1339 60.8932 63.6589 60.8932H76.2686C76.7936 60.8932 77.2192 60.4692 77.2192 59.9461V48.8299C77.2192 48.3068 76.7936 47.8828 76.2686 47.8828Z" fill="#FFC700"/>
</g>
<path d="M120.122 47.8828H82.2026C81.855 47.8828 81.5731 48.1636 81.5731 48.51V48.7015C81.5731 49.0479 81.855 49.3286 82.2026 49.3286H120.122C120.47 49.3286 120.752 49.0479 120.752 48.7015V48.51C120.752 48.1636 120.47 47.8828 120.122 47.8828Z" fill="#484748"/>
<path d="M120.122 52.2205H82.2026C81.855 52.2205 81.5731 52.5012 81.5731 52.8476V53.0391C81.5731 53.3855 81.855 53.6663 82.2026 53.6663H120.122C120.47 53.6663 120.752 53.3855 120.752 53.0391V52.8476C120.752 52.5012 120.47 52.2205 120.122 52.2205Z" fill="#484748"/>
<path d="M120.122 67.9604H61.8865C61.5388 67.9604 61.257 68.2412 61.257 68.5876V68.7791C61.257 69.1255 61.5388 69.4063 61.8865 69.4063H120.122C120.47 69.4063 120.752 69.1255 120.752 68.7791V68.5876C120.752 68.2412 120.47 67.9604 120.122 67.9604Z" fill="#484748"/>
<path d="M120.122 72.2979H61.8865C61.5388 72.2979 61.257 72.5786 61.257 72.925V73.1165C61.257 73.4629 61.5388 73.7437 61.8865 73.7437H120.122C120.47 73.7437 120.752 73.4629 120.752 73.1165V72.925C120.752 72.5786 120.47 72.2979 120.122 72.2979Z" fill="#484748"/>
<path d="M120.122 78.0791H61.8865C61.5388 78.0791 61.257 78.3599 61.257 78.7063V78.8978C61.257 79.2441 61.5388 79.5249 61.8865 79.5249H120.122C120.47 79.5249 120.752 79.2441 120.752 78.8978V78.7063C120.752 78.3599 120.47 78.0791 120.122 78.0791Z" fill="#484748"/>
<path d="M105.612 82.4165H61.8865C61.5388 82.4165 61.257 82.6973 61.257 83.0437V83.2352C61.257 83.5815 61.5388 83.8623 61.8865 83.8623H105.612C105.959 83.8623 106.241 83.5815 106.241 83.2352V83.0437C106.241 82.6973 105.959 82.4165 105.612 82.4165Z" fill="#484748"/>
<g opacity="0.5">
<path opacity="0.5" d="M126.253 57.6396L126.5 56.541L126.154 57.6143C117.143 55.1899 107.855 53.9419 98.5219 53.9019C31.276 53.5062 0 112.714 0 112.714L63.7265 146.21C63.7265 146.21 71.5428 122.062 99.3035 122.849C101.213 122.901 103.118 123.067 105.007 123.346L96.5615 149.554C96.2005 150.066 95.9464 150.645 95.8142 151.256C95.682 151.867 95.6743 152.499 95.7917 153.114C95.9091 153.728 96.1492 154.313 96.4976 154.833C96.8461 155.353 97.2959 155.799 97.8203 156.143C98.3448 156.486 98.9332 156.722 99.5507 156.835C100.168 156.948 100.802 156.937 101.415 156.801C102.028 156.666 102.607 156.409 103.119 156.046C103.63 155.683 104.063 155.222 104.393 154.689V154.676C104.831 153.967 105.07 153.153 105.083 152.319C105.083 152.178 105.083 152.037 105.069 151.898L111.174 124.72C129.363 130.293 134.874 146.208 134.874 146.208L199 114.271C199 114.271 174.917 70.8057 126.253 57.6396Z" fill="url(#paint2_linear)"/>
</g>
<path d="M98.5345 54.5585C32.1463 54.1734 1.26746 112.621 1.26746 112.621L64.1827 145.686C64.1827 145.686 71.9019 121.845 99.3077 122.614C101.238 122.666 103.163 122.836 105.073 123.123L125.907 58.2499C116.982 55.8396 107.781 54.5987 98.5345 54.5585Z" fill="#FFC700"/>
<path d="M125.907 58.25L105.073 123.129C127.808 126.57 134.431 145.686 134.431 145.686L197.733 114.16C197.733 114.16 173.948 71.2477 125.907 58.25Z" fill="#484748"/>
<path d="M105.005 151.307L126.156 57.1641L96.5974 148.992C96.2353 149.497 95.9791 150.07 95.8443 150.676C95.7095 151.282 95.6988 151.908 95.8129 152.518C95.9269 153.129 96.1634 153.71 96.508 154.226C96.8527 154.743 97.2986 155.186 97.8189 155.527C98.3392 155.868 98.9233 156.101 99.5362 156.213C100.149 156.324 100.778 156.31 101.386 156.174C101.993 156.037 102.567 155.779 103.073 155.417C103.578 155.054 104.005 154.593 104.327 154.062V154.049C104.76 153.349 104.995 152.546 105.01 151.724C105.022 151.579 105.016 151.444 105.005 151.307Z" fill="#535461"/>
<defs>
<linearGradient id="paint0_linear" x1="46.3657" y1="106.36" x2="46.3657" y2="0" gradientUnits="userSpaceOnUse">
<stop stop-color="#808080" stop-opacity="0.25"/>
<stop offset="0.54" stop-color="#808080" stop-opacity="0.12"/>
<stop offset="1" stop-color="#808080" stop-opacity="0.1"/>
</linearGradient>
<linearGradient id="paint1_linear" x1="29623.5" y1="28778.8" x2="29623.5" y2="10207.2" gradientUnits="userSpaceOnUse">
<stop stop-color="#808080" stop-opacity="0.25"/>
<stop offset="0.54" stop-color="#808080" stop-opacity="0.12"/>
<stop offset="1" stop-color="#808080" stop-opacity="0.1"/>
</linearGradient>
<linearGradient id="paint2_linear" x1="119400" y1="84973" x2="119400" y2="34549.6" gradientUnits="userSpaceOnUse">
<stop stop-color="#808080" stop-opacity="0.25"/>
<stop offset="0.54" stop-color="#808080" stop-opacity="0.12"/>
<stop offset="1" stop-color="#808080" stop-opacity="0.1"/>
</linearGradient>
</defs>
</svg>
