<svg width="206" height="175" viewBox="0 0 206 175" fill="none" xmlns="http://www.w3.org/2000/svg">
<path d="M205.902 62.0334C205.527 55.4083 202.812 49.1315 198.241 44.3222C193.669 39.513 187.539 36.4838 180.942 35.7748C174.345 35.0658 167.711 36.7231 162.223 40.4512C156.734 44.1793 152.748 49.7358 150.974 56.1301C150.635 56.1179 150.296 56.1043 149.954 56.1043C143.906 56.1054 138.02 58.0651 133.178 61.6903C128.336 65.3154 124.798 70.4112 123.093 76.2151C119.085 74.4538 114.606 74.0717 110.358 75.1286C106.11 76.1854 102.332 78.6216 99.6162 82.0556H186.944C197.672 82.0556 206.359 73.1679 205.922 62.4464C205.916 62.3089 205.909 62.1713 205.902 62.0334Z" fill="#38373A"/>
<path d="M0.0356453 27.3093C0.41028 20.6841 3.12531 14.4074 7.69668 9.59812C12.268 4.78885 18.3986 1.75969 24.9953 1.05071C31.592 0.341725 38.2261 1.999 43.7147 5.72707C49.2033 9.45513 53.1897 15.0116 54.9632 21.4059C55.3024 21.3938 55.6412 21.3801 55.9834 21.3801C62.0317 21.3812 67.9171 23.341 72.7591 26.9661C77.6011 30.5913 81.1393 35.687 82.8445 41.4909C86.8524 39.7297 91.3311 39.3475 95.5794 40.4044C99.8276 41.4613 103.605 43.8975 106.321 47.3315H18.9938C8.26503 47.3315 -0.421673 38.4438 0.0158328 27.7223C0.0214389 27.5848 0.0280447 27.4472 0.0356453 27.3093Z" fill="#38373A"/>
<path d="M125.325 54.9346H56.5371L22.1434 114.516L56.5371 174.097H125.325L159.718 114.516L125.325 54.9346Z" fill="#FFC700"/>
<path d="M62.295 164.122H119.567L148.203 114.516L119.567 64.9089H62.295L33.6591 114.516L62.295 164.122Z" fill="#1E1D1F"/>
<path d="M69.5606 64.8352H68.8154V95.5983H69.5606V64.8352Z" fill="#75738D"/>
<path d="M69.188 99.4878C70.3595 99.4878 71.3093 98.5379 71.3093 97.3662C71.3093 96.1945 70.3595 95.2446 69.188 95.2446C68.0165 95.2446 67.0668 96.1945 67.0668 97.3662C67.0668 98.5379 68.0165 99.4878 69.188 99.4878Z" fill="#FFC700"/>
<path d="M85.4699 64.8352H84.7247V95.5983H85.4699V64.8352Z" fill="#75738D"/>
<path d="M85.0973 99.4878C86.2689 99.4878 87.2186 98.5379 87.2186 97.3662C87.2186 96.1945 86.2689 95.2446 85.0973 95.2446C83.9258 95.2446 82.9761 96.1945 82.9761 97.3662C82.9761 98.5379 83.9258 99.4878 85.0973 99.4878Z" fill="#75738D"/>
<path d="M113.4 64.8352H112.655V95.5983H113.4V64.8352Z" fill="#75738D"/>
<path d="M113.027 99.4878C114.199 99.4878 115.148 98.5379 115.148 97.3662C115.148 96.1945 114.199 95.2446 113.027 95.2446C111.856 95.2446 110.906 96.1945 110.906 97.3662C110.906 98.5379 111.856 99.4878 113.027 99.4878Z" fill="#75738D"/>
<path d="M101.36 129.897C102.532 129.897 103.482 128.947 103.482 127.776C103.482 126.604 102.532 125.654 101.36 125.654C100.189 125.654 99.239 126.604 99.239 127.776C99.239 128.947 100.189 129.897 101.36 129.897Z" fill="#75738D"/>
<path d="M58.2282 110.449C59.3997 110.449 60.3494 109.499 60.3494 108.328C60.3494 107.156 59.3997 106.206 58.2282 106.206C57.0566 106.206 56.1069 107.156 56.1069 108.328C56.1069 109.499 57.0566 110.449 58.2282 110.449Z" fill="#75738D"/>
<path d="M101.733 126.007H100.988V88.9379H85.0974V88.1926H101.733V126.007Z" fill="#75738D"/>
<path d="M74.1376 143.334C75.3091 143.334 76.2589 142.384 76.2589 141.212C76.2589 140.041 75.3091 139.091 74.1376 139.091C72.9661 139.091 72.0164 140.041 72.0164 141.212C72.0164 142.384 72.9661 143.334 74.1376 143.334Z" fill="#FFC700"/>
<path d="M74.5102 139.444H73.765V102.374H57.8746V101.629H74.5102V139.444Z" fill="#75738D"/>
<path d="M123.28 126.715C124.451 126.715 125.401 125.765 125.401 124.593C125.401 123.422 124.451 122.472 123.28 122.472C122.108 122.472 121.159 123.422 121.159 124.593C121.159 125.765 122.108 126.715 123.28 126.715Z" fill="#FFC700"/>
<path d="M123.652 122.825H122.907V85.7555H112.674V85.0103H123.652V122.825Z" fill="#75738D"/>
<path d="M58.6007 106.206H57.8556V87.7749H69.1879V88.5202H58.6007V106.206Z" fill="#75738D"/>
<path d="M85.2741 151.643C86.4456 151.643 87.3953 150.693 87.3953 149.522C87.3953 148.35 86.4456 147.4 85.2741 147.4C84.1025 147.4 83.1528 148.35 83.1528 149.522C83.1528 150.693 84.1025 151.643 85.2741 151.643Z" fill="#75738D"/>
<path d="M85.6465 147.4H84.9014V129.714H74.3142V128.969H85.6465V147.4Z" fill="#75738D"/>
<path d="M112.32 135.908C113.492 135.908 114.441 134.958 114.441 133.787C114.441 132.615 113.492 131.665 112.32 131.665C111.149 131.665 110.199 132.615 110.199 133.787C110.199 134.958 111.149 135.908 112.32 135.908Z" fill="#75738D"/>
<path d="M112.693 131.665H111.948V113.234H123.28V113.979H112.693V131.665Z" fill="#75738D"/>
</svg>
