<svg width="70" height="58" viewBox="0 0 70 58" fill="none" xmlns="http://www.w3.org/2000/svg">
<path d="M68.5107 18.6047H22.1913C21.8214 18.6043 21.4668 18.458 21.2052 18.1979C20.9437 17.9379 20.7966 17.5853 20.7961 17.2175V1.68135C20.7966 1.31358 20.9437 0.961003 21.2052 0.700953C21.4668 0.440902 21.8214 0.294616 22.1913 0.294189H68.5107C68.8806 0.29461 69.2352 0.440895 69.4967 0.700946C69.7583 0.960998 69.9054 1.31358 69.9058 1.68135V17.2175C69.9054 17.5853 69.7583 17.9379 69.4967 18.1979C69.2352 18.458 68.8806 18.6043 68.5107 18.6047Z" fill="#5C5E64"/>
<path d="M40.3285 4.45575H28.051V5.84291H40.3285V4.45575Z" fill="#28292C"/>
<path d="M56.5123 6.12034C56.9746 6.12034 57.3494 5.7477 57.3494 5.28804C57.3494 4.82838 56.9746 4.45575 56.5123 4.45575C56.0499 4.45575 55.6752 4.82838 55.6752 5.28804C55.6752 5.7477 56.0499 6.12034 56.5123 6.12034Z" fill="#FFC700"/>
<path d="M59.3027 6.12034C59.765 6.12034 60.1398 5.7477 60.1398 5.28804C60.1398 4.82838 59.765 4.45575 59.3027 4.45575C58.8404 4.45575 58.4656 4.82838 58.4656 5.28804C58.4656 5.7477 58.8404 6.12034 59.3027 6.12034Z" fill="#FFC700"/>
<path d="M62.093 6.12034C62.5553 6.12034 62.93 5.7477 62.93 5.28804C62.93 4.82838 62.5553 4.45575 62.093 4.45575C61.6306 4.45575 61.2559 4.82838 61.2559 5.28804C61.2559 5.7477 61.6306 6.12034 62.093 6.12034Z" fill="#FFC700"/>
<path d="M68.5107 38.3024H22.1913C21.8214 38.3019 21.4668 38.1557 21.2052 37.8956C20.9437 37.6356 20.7966 37.283 20.7961 36.9152V21.379C20.7966 21.0113 20.9437 20.6587 21.2052 20.3986C21.4668 20.1386 21.8214 19.9923 22.1913 19.9919H68.5107C68.8806 19.9923 69.2352 20.1386 69.4967 20.3986C69.7583 20.6587 69.9054 21.0113 69.9058 21.379V36.9152C69.9054 37.283 69.7583 37.6356 69.4967 37.8956C69.2352 38.1557 68.8806 38.3019 68.5107 38.3024Z" fill="#5C5E64"/>
<path d="M40.3285 24.1534H28.051V25.5405H40.3285V24.1534Z" fill="#28292C"/>
<path d="M56.5123 25.818C56.9746 25.818 57.3494 25.4453 57.3494 24.9857C57.3494 24.526 56.9746 24.1534 56.5123 24.1534C56.0499 24.1534 55.6752 24.526 55.6752 24.9857C55.6752 25.4453 56.0499 25.818 56.5123 25.818Z" fill="#FFC700"/>
<path d="M59.3027 25.818C59.765 25.818 60.1398 25.4453 60.1398 24.9857C60.1398 24.526 59.765 24.1534 59.3027 24.1534C58.8404 24.1534 58.4656 24.526 58.4656 24.9857C58.4656 25.4453 58.8404 25.818 59.3027 25.818Z" fill="#FFC700"/>
<path d="M62.093 25.818C62.5553 25.818 62.93 25.4453 62.93 24.9857C62.93 24.526 62.5553 24.1534 62.093 24.1534C61.6306 24.1534 61.2559 24.526 61.2559 24.9857C61.2559 25.4453 61.6306 25.818 62.093 25.818Z" fill="#FFC700"/>
<path d="M68.5107 57.9999H22.1913C21.8214 57.9995 21.4668 57.8532 21.2052 57.5932C20.9437 57.3331 20.7966 56.9805 20.7961 56.6128V41.0766C20.7966 40.7088 20.9437 40.3563 21.2052 40.0962C21.4668 39.8362 21.8214 39.6899 22.1913 39.6895H68.5107C68.8806 39.6899 69.2352 39.8362 69.4967 40.0962C69.7583 40.3563 69.9054 40.7088 69.9058 41.0766V56.6128C69.9054 56.9805 69.7583 57.3331 69.4967 57.5932C69.2352 57.8532 68.8806 57.9995 68.5107 57.9999Z" fill="#5C5E64"/>
<path d="M40.3285 43.851H28.051V45.2382H40.3285V43.851Z" fill="#28292C"/>
<path d="M56.5123 45.5156C56.9746 45.5156 57.3494 45.143 57.3494 44.6833C57.3494 44.2236 56.9746 43.851 56.5123 43.851C56.0499 43.851 55.6752 44.2236 55.6752 44.6833C55.6752 45.143 56.0499 45.5156 56.5123 45.5156Z" fill="#FFC700"/>
<path d="M59.3027 45.5156C59.765 45.5156 60.1398 45.143 60.1398 44.6833C60.1398 44.2236 59.765 43.851 59.3027 43.851C58.8404 43.851 58.4656 44.2236 58.4656 44.6833C58.4656 45.143 58.8404 45.5156 59.3027 45.5156Z" fill="#FFC700"/>
<path d="M62.093 45.5156C62.5553 45.5156 62.93 45.143 62.93 44.6833C62.93 44.2236 62.5553 43.851 62.093 43.851C61.6306 43.851 61.2559 44.2236 61.2559 44.6833C61.2559 45.143 61.6306 45.5156 62.093 45.5156Z" fill="#FFC700"/>
<g clip-path="url(#clip0)">
<path d="M12.7931 47.3229L26.9892 23.0382C27.3106 22.4884 26.8548 21.8118 26.2206 21.8975L16.7777 23.1726L19.0339 11.4045C19.11 11.0078 18.5952 10.7805 18.3497 11.1023L4.39179 29.407C3.98522 29.9402 4.41573 30.6982 5.08526 30.6283L15.496 29.5395L12.0831 47.0585C12.0008 47.481 12.5755 47.6951 12.7931 47.3229Z" fill="#FFC700"/>
<path d="M8.75672 28.1099C8.49599 28.1306 8.32283 27.8474 8.46142 27.6271L18.8974 11.0381C18.7422 10.916 18.4977 10.9082 18.3497 11.1023L4.39179 29.407C3.98522 29.9402 4.41573 30.6982 5.08526 30.6282L15.496 29.5395L12.0831 47.0584C12.0371 47.2948 12.1975 47.461 12.385 47.5008L18.2334 29.1149C18.5076 28.2531 17.8159 27.3898 16.9091 27.4619L8.75672 28.1099Z" fill="#FFE071"/>
</g>
<defs>
<clipPath id="clip0">
<rect width="24.2667" height="38.976" fill="white" transform="translate(3.73328 9.74402)"/>
</clipPath>
</defs>
</svg>
