<svg width="74" height="58" viewBox="0 0 74 58" fill="none" xmlns="http://www.w3.org/2000/svg">
<path d="M72.5148 18.6047H26.3202C25.9513 18.6043 25.5977 18.458 25.3368 18.198C25.076 17.9379 24.9293 17.5854 24.9288 17.2176V1.68141C24.9293 1.31365 25.076 0.961064 25.3368 0.701014C25.5977 0.440963 25.9513 0.294677 26.3202 0.29425H72.5148C72.8837 0.294671 73.2373 0.440956 73.4982 0.701008C73.759 0.961059 73.9058 1.31364 73.9062 1.68141V17.2176C73.9058 17.5854 73.759 17.9379 73.4982 18.198C73.2373 18.458 72.8837 18.6043 72.5148 18.6047Z" fill="#5C5E64"/>
<path d="M44.4084 4.45575H32.1641V5.84291H44.4084V4.45575Z" fill="#28292C"/>
<path d="M60.5487 6.12034C61.0098 6.12034 61.3835 5.7477 61.3835 5.28804C61.3835 4.82838 61.0098 4.45575 60.5487 4.45575C60.0876 4.45575 59.7139 4.82838 59.7139 5.28804C59.7139 5.7477 60.0876 6.12034 60.5487 6.12034Z" fill="#FFC700"/>
<path d="M63.3316 6.12034C63.7926 6.12034 64.1664 5.7477 64.1664 5.28804C64.1664 4.82838 63.7926 4.45575 63.3316 4.45575C62.8705 4.45575 62.4967 4.82838 62.4967 5.28804C62.4967 5.7477 62.8705 6.12034 63.3316 6.12034Z" fill="#FFC700"/>
<path d="M66.1143 6.12034C66.5753 6.12034 66.9491 5.7477 66.9491 5.28804C66.9491 4.82838 66.5753 4.45575 66.1143 4.45575C65.6532 4.45575 65.2794 4.82838 65.2794 5.28804C65.2794 5.7477 65.6532 6.12034 66.1143 6.12034Z" fill="#FFC700"/>
<path d="M72.5148 38.3024H26.3202C25.9513 38.3019 25.5977 38.1557 25.3368 37.8956C25.076 37.6356 24.9293 37.283 24.9288 36.9152V21.379C24.9293 21.0113 25.076 20.6587 25.3368 20.3986C25.5977 20.1386 25.9513 19.9923 26.3202 19.9919H72.5148C72.8837 19.9923 73.2373 20.1386 73.4982 20.3986C73.759 20.6587 73.9058 21.0113 73.9062 21.379V36.9152C73.9058 37.283 73.759 37.6356 73.4982 37.8956C73.2373 38.1557 72.8837 38.3019 72.5148 38.3024Z" fill="#5C5E64"/>
<path d="M44.4084 24.1533H32.1641V25.5405H44.4084V24.1533Z" fill="#28292C"/>
<path d="M60.5487 25.8179C61.0098 25.8179 61.3835 25.4453 61.3835 24.9856C61.3835 24.5259 61.0098 24.1533 60.5487 24.1533C60.0876 24.1533 59.7139 24.5259 59.7139 24.9856C59.7139 25.4453 60.0876 25.8179 60.5487 25.8179Z" fill="#FFC700"/>
<path d="M63.3316 25.8179C63.7926 25.8179 64.1664 25.4453 64.1664 24.9856C64.1664 24.5259 63.7926 24.1533 63.3316 24.1533C62.8705 24.1533 62.4967 24.5259 62.4967 24.9856C62.4967 25.4453 62.8705 25.8179 63.3316 25.8179Z" fill="#FFC700"/>
<path d="M66.1143 25.8179C66.5753 25.8179 66.9491 25.4453 66.9491 24.9856C66.9491 24.5259 66.5753 24.1533 66.1143 24.1533C65.6532 24.1533 65.2794 24.5259 65.2794 24.9856C65.2794 25.4453 65.6532 25.8179 66.1143 25.8179Z" fill="#FFC700"/>
<path d="M72.5148 58H26.3202C25.9513 57.9996 25.5977 57.8533 25.3368 57.5933C25.076 57.3332 24.9293 56.9806 24.9288 56.6128V41.0767C24.9293 40.7089 25.076 40.3563 25.3368 40.0963C25.5977 39.8362 25.9513 39.6899 26.3202 39.6895H72.5148C72.8837 39.6899 73.2373 39.8362 73.4982 40.0963C73.759 40.3563 73.9058 40.7089 73.9062 41.0767V56.6128C73.9058 56.9806 73.759 57.3332 73.4982 57.5933C73.2373 57.8533 72.8837 57.9996 72.5148 58Z" fill="#5C5E64"/>
<path d="M44.4084 43.851H32.1641V45.2382H44.4084V43.851Z" fill="#28292C"/>
<path d="M60.5487 45.5156C61.0098 45.5156 61.3835 45.143 61.3835 44.6833C61.3835 44.2236 61.0098 43.851 60.5487 43.851C60.0876 43.851 59.7139 44.2236 59.7139 44.6833C59.7139 45.143 60.0876 45.5156 60.5487 45.5156Z" fill="#FFC700"/>
<path d="M63.3316 45.5156C63.7926 45.5156 64.1664 45.143 64.1664 44.6833C64.1664 44.2236 63.7926 43.851 63.3316 43.851C62.8705 43.851 62.4967 44.2236 62.4967 44.6833C62.4967 45.143 62.8705 45.5156 63.3316 45.5156Z" fill="#FFC700"/>
<path d="M66.1143 45.5156C66.5753 45.5156 66.9491 45.143 66.9491 44.6833C66.9491 44.2236 66.5753 43.851 66.1143 43.851C65.6532 43.851 65.2794 44.2236 65.2794 44.6833C65.2794 45.143 65.6532 45.5156 66.1143 45.5156Z" fill="#FFC700"/>
<path d="M18.1628 13.3507C18.1628 13.3507 7.24252 17.8504 6.07249 18.3395C4.90247 18.8286 4.31745 20.0025 4.31745 21.1763C4.31745 22.3501 3.43993 37.6671 18.1628 45.0728C18.1628 45.0728 19.499 45.4437 20.5128 45.0728C21.5266 44.7019 34.3969 38.4414 34.3969 21.1274C34.3969 21.1274 34.3969 19.3666 32.3493 18.3884C30.3018 17.4103 20.4022 13.3507 20.4022 13.3507C20.4022 13.3507 19.1865 12.8127 18.1628 13.3507Z" fill="#FFC700"/>
<path d="M19.4448 45.9356C18.9162 45.9338 18.3898 45.8662 17.8781 45.7344L17.7772 45.7067L17.6836 45.6601C14.301 43.9765 11.4472 41.7527 9.20161 39.0504C7.34272 36.8004 5.89344 34.2457 4.91894 31.5012C3.7536 28.2154 3.19296 24.7484 3.26377 21.2656C3.2652 21.1925 3.26641 21.136 3.26641 21.0971C3.26641 19.4041 4.21307 17.9187 5.67813 17.3127C6.79941 16.8489 16.9801 12.6978 17.7157 12.3978C19.101 11.7088 20.5789 12.2839 20.8154 12.3845C21.3459 12.5998 30.7573 16.4211 32.7911 17.3825C34.8872 18.3733 35.4464 20.1533 35.4464 21.0488C35.4464 25.1032 34.7391 28.8924 33.344 32.311C32.2174 35.0782 30.6206 37.6328 28.6232 39.8636C24.7694 44.1688 20.9146 45.6951 20.8774 45.7085C20.4167 45.8659 19.932 45.9427 19.4448 45.9356ZM18.5383 43.7065C18.8725 43.7809 19.642 43.8924 20.1435 43.7108C20.7806 43.4802 24.007 41.8193 27.0219 38.4512C31.1876 33.7976 33.3012 27.9476 33.3043 21.0638C33.2969 20.9243 33.1971 19.9296 31.8702 19.3024C29.8758 18.3596 20.0934 14.3888 19.9948 14.3488L19.9678 14.3374C19.7628 14.2521 19.1104 14.0725 18.6606 14.3064L18.5706 14.3481C18.4615 14.3926 7.65458 18.7988 6.50202 19.2755C5.69576 19.609 5.4085 20.4352 5.4085 21.0971C5.4085 21.1455 5.40724 21.2159 5.40546 21.3068C5.31335 26.017 6.41132 37.6073 18.5383 43.7065Z" fill="#212022"/>
<path opacity="0.2" d="M19.3522 13.7653V37.8598C19.3522 37.8598 30.2945 32.5191 30.1977 18.4783L19.3522 13.7653Z" fill="black"/>
</svg>
