<svg width="75" height="59" viewBox="0 0 75 59" fill="none" xmlns="http://www.w3.org/2000/svg">
<g clip-path="url(#clip0)">
<path d="M73.3287 19.2859H28.0681C27.7067 19.2854 27.3602 19.1381 27.1046 18.8762C26.849 18.6142 26.7053 18.2591 26.7048 17.8886V2.23947C26.7053 1.86903 26.849 1.51389 27.1046 1.25195C27.3602 0.990004 27.7067 0.842654 28.0681 0.842224H73.3287C73.6902 0.842648 74.0367 0.989996 74.2923 1.25194C74.5478 1.51388 74.6916 1.86903 74.692 2.23947V17.8886C74.6916 18.2591 74.5478 18.6142 74.2923 18.8762C74.0367 19.1381 73.6902 19.2854 73.3287 19.2859Z" fill="#5C5E64"/>
<path d="M45.7906 5.03461H33.7938V6.43185H45.7906V5.03461Z" fill="#28292C"/>
<path d="M61.6046 6.7113C62.0563 6.7113 62.4225 6.33595 62.4225 5.87295C62.4225 5.40994 62.0563 5.03461 61.6046 5.03461C61.1528 5.03461 60.7866 5.40994 60.7866 5.87295C60.7866 6.33595 61.1528 6.7113 61.6046 6.7113Z" fill="#FFC700"/>
<path d="M64.3312 6.7113C64.7829 6.7113 65.1491 6.33595 65.1491 5.87295C65.1491 5.40994 64.7829 5.03461 64.3312 5.03461C63.8794 5.03461 63.5132 5.40994 63.5132 5.87295C63.5132 6.33595 63.8794 6.7113 64.3312 6.7113Z" fill="#FFC700"/>
<path d="M67.0577 6.7113C67.5095 6.7113 67.8757 6.33595 67.8757 5.87295C67.8757 5.40994 67.5095 5.03461 67.0577 5.03461C66.606 5.03461 66.2397 5.40994 66.2397 5.87295C66.2397 6.33595 66.606 6.7113 67.0577 6.7113Z" fill="#FFC700"/>
<path d="M73.3287 39.1274H28.0681C27.7067 39.127 27.3602 38.9797 27.1046 38.7177C26.849 38.4558 26.7053 38.1006 26.7048 37.7302V22.081C26.7053 21.7106 26.849 21.3554 27.1046 21.0935C27.3602 20.8316 27.7067 20.6842 28.0681 20.6838H73.3287C73.6902 20.6842 74.0367 20.8315 74.2923 21.0935C74.5478 21.3554 74.6916 21.7106 74.692 22.081V37.7302C74.6916 38.1006 74.5478 38.4558 74.2923 38.7177C74.0367 38.9797 73.6902 39.127 73.3287 39.1274Z" fill="#5C5E64"/>
<path d="M45.7906 24.8755H33.7938V26.2727H45.7906V24.8755Z" fill="#28292C"/>
<path d="M61.6046 26.5522C62.0563 26.5522 62.4225 26.1768 62.4225 25.7138C62.4225 25.2508 62.0563 24.8755 61.6046 24.8755C61.1528 24.8755 60.7866 25.2508 60.7866 25.7138C60.7866 26.1768 61.1528 26.5522 61.6046 26.5522Z" fill="#FFC700"/>
<path d="M64.3312 26.5522C64.7829 26.5522 65.1491 26.1768 65.1491 25.7138C65.1491 25.2508 64.7829 24.8755 64.3312 24.8755C63.8794 24.8755 63.5132 25.2508 63.5132 25.7138C63.5132 26.1768 63.8794 26.5522 64.3312 26.5522Z" fill="#FFC700"/>
<path d="M67.0577 26.5522C67.5095 26.5522 67.8757 26.1768 67.8757 25.7138C67.8757 25.2508 67.5095 24.8755 67.0577 24.8755C66.606 24.8755 66.2397 25.2508 66.2397 25.7138C66.2397 26.1768 66.606 26.5522 67.0577 26.5522Z" fill="#FFC700"/>
<path d="M73.3287 58.9683H28.0681C27.7067 58.9679 27.3602 58.8205 27.1046 58.5586C26.849 58.2967 26.7053 57.9415 26.7048 57.5711V41.9219C26.7053 41.5515 26.849 41.1963 27.1046 40.9344C27.3602 40.6724 27.7067 40.5251 28.0681 40.5247H73.3287C73.6902 40.5251 74.0367 40.6724 74.2923 40.9344C74.5478 41.1963 74.6916 41.5515 74.692 41.9219V57.5711C74.6916 57.9415 74.5478 58.2966 74.2923 58.5586C74.0367 58.8205 73.6902 58.9679 73.3287 58.9683Z" fill="#5C5E64"/>
<path d="M45.7906 44.7164H33.7938V46.1136H45.7906V44.7164Z" fill="#28292C"/>
<path d="M61.6046 46.3931C62.0563 46.3931 62.4225 46.0177 62.4225 45.5547C62.4225 45.0917 62.0563 44.7164 61.6046 44.7164C61.1528 44.7164 60.7866 45.0917 60.7866 45.5547C60.7866 46.0177 61.1528 46.3931 61.6046 46.3931Z" fill="#FFC700"/>
<path d="M64.3312 46.3931C64.7829 46.3931 65.1491 46.0177 65.1491 45.5547C65.1491 45.0917 64.7829 44.7164 64.3312 44.7164C63.8794 44.7164 63.5132 45.0917 63.5132 45.5547C63.5132 46.0177 63.8794 46.3931 64.3312 46.3931Z" fill="#FFC700"/>
<path d="M67.0577 46.3931C67.5095 46.3931 67.8757 46.0177 67.8757 45.5547C67.8757 45.0917 67.5095 44.7164 67.0577 44.7164C66.606 44.7164 66.2397 45.0917 66.2397 45.5547C66.2397 46.0177 66.606 46.3931 67.0577 46.3931Z" fill="#FFC700"/>
</g>
<path d="M32.3825 23.7583L25.1351 14.9919L10.5875 15.1271L1.7627 23.8667L1.94101 23.9832H1.87734V42.1618H32.3629V23.9832L32.3825 23.7583Z" fill="#212022"/>
<path d="M25.1426 15.0106L16.0887 25.8033V42.1618H32.3629L32.3629 23.7502L25.1426 15.0106Z" fill="#212022"/>
<path d="M25.9449 33.1153H22.6213V36.1022H25.9449V33.1153Z" fill="#212022"/>
<path d="M25.9449 27.9452H22.6213V30.8848H25.9449V27.9452Z" fill="#212022"/>
<path d="M11.1745 32.3227H7.85087V35.3097H11.1745V32.3227Z" fill="#212022"/>
<path d="M11.1745 27.1527H7.85087V30.0922H11.1745V27.1527Z" fill="#212022"/>
<path d="M32.3825 23.7583L25.1351 14.9919L10.5875 15.1271L1.7627 23.8667L1.94101 23.9832H1.87734V42.1618H32.3629V23.9832L32.3825 23.7583Z" fill="#5C5E64"/>
<path d="M25.1426 15.0106L16.0886 25.8033V42.1618H32.3628V23.7502L25.1426 15.0106Z" fill="#FFC700"/>
<path d="M25.9448 33.1153H22.6212V36.1022H25.9448V33.1153Z" fill="#212022"/>
<path d="M25.9448 27.9453H22.6212V30.8848H25.9448V27.9453Z" fill="#212022"/>
<path d="M11.1744 32.3227H7.85083V35.3096H11.1744V32.3227Z" fill="#212022"/>
<path d="M11.1744 27.1526H7.85083V30.0922H11.1744V27.1526Z" fill="#212022"/>
<defs>
<clipPath id="clip0">
<rect x="26.448" y="0.546509" width="48.336" height="58.4218" fill="white"/>
</clipPath>
</defs>
</svg>
