<svg width="175" height="31" viewBox="0 0 175 31" fill="none" xmlns="http://www.w3.org/2000/svg">
<path fill-rule="evenodd" clip-rule="evenodd" d="M16.0255 0.444305V9.49588H15.3205C15.0825 7.76564 14.6563 6.38691 14.0429 5.36263C13.4286 4.33737 12.5543 3.52302 11.4181 2.91958C10.282 2.31712 9.10703 2.01637 7.89322 2.01637C6.52009 2.01637 5.38395 2.42745 4.48678 3.24864C3.58962 4.06982 3.14054 5.00428 3.14054 6.05297C3.14054 6.8556 3.42432 7.58695 3.9909 8.24507C4.80841 9.21565 6.7521 10.5104 9.82496 12.1274C12.3293 13.4475 14.0399 14.4601 14.957 15.1651C15.8741 15.8701 16.5811 16.7 17.076 17.6579C17.5644 18.5877 17.8191 19.6185 17.8188 20.6644C17.8188 22.6563 17.0292 24.3729 15.4509 25.8132C13.8727 27.2553 11.8423 27.976 9.35995 27.976C8.58028 27.976 7.84741 27.9174 7.16135 27.7992C6.7511 27.7358 5.90273 27.4955 4.61523 27.0854C3.32774 26.6753 2.51222 26.4683 2.16969 26.4683C1.8381 26.4683 1.57722 26.566 1.38604 26.7622C1.19386 26.9585 1.05246 27.3628 0.959859 27.976H0.255868V18.9244H0.96185C1.30439 20.8216 1.76741 22.2404 2.34792 23.1826C2.92844 24.1259 3.81764 24.909 5.01353 25.5319C6.20842 26.1559 7.51982 26.4674 8.94572 26.4674C10.5967 26.4674 11.9011 26.0397 12.859 25.1863C13.8159 24.3309 14.2958 23.3203 14.2958 22.1554C14.2958 21.5071 14.1136 20.8528 13.7532 20.1928C13.3907 19.5327 12.8281 18.9166 12.0654 18.3463C11.5506 17.9587 10.1466 17.1365 7.8514 15.8789C5.55422 14.6222 3.92219 13.6184 2.95433 12.8666C1.98647 12.1147 1.2536 11.2867 0.752744 10.3786C0.251885 9.47148 0.00195312 8.47356 0.00195312 7.38581C0.00195312 5.49444 0.740795 3.86379 2.21947 2.49678C3.69716 1.12976 5.57812 0.446257 7.86036 0.446257C9.28527 0.446257 10.7968 0.788014 12.393 1.47152C13.1318 1.79374 13.6526 1.95485 13.9553 1.95485C14.2988 1.95485 14.5776 1.85526 14.7967 1.65509C15.0138 1.45492 15.19 1.05263 15.3215 0.446257H16.0255V0.444305ZM31.573 10.4665V10.0046H37.8521V10.4655H37.182C36.48 10.4655 35.9413 10.7574 35.5649 11.3423C35.3807 11.6138 35.2881 12.2426 35.2881 13.2298V20.3431C35.2881 22.1037 35.1089 23.4668 34.7524 24.4364C34.3959 25.406 33.6959 26.2389 32.6524 26.9321C31.6088 27.6264 30.1879 27.973 28.3916 27.973C26.4359 27.973 24.9513 27.641 23.9396 26.9761C22.9451 26.334 22.1894 25.3933 21.7858 24.2948C21.504 23.5254 21.3636 22.0832 21.3636 19.9682V13.1028C21.3636 12.02 21.2133 11.3091 20.9146 10.9703C20.6158 10.6334 20.1319 10.4635 19.4638 10.4635H18.7996V10.0046H26.4459V10.4655H25.7688C25.0409 10.4655 24.5201 10.695 24.2085 11.1549C23.9914 11.4673 23.8839 12.1167 23.8839 13.1048V20.7503C23.8839 21.4328 23.9476 22.213 24.076 23.0918C24.2035 23.9716 24.4365 24.658 24.7731 25.1482C25.1096 25.6403 25.5945 26.0455 26.2278 26.3648C26.8601 26.6841 27.6378 26.8433 28.5589 26.8433C29.7368 26.8433 30.7893 26.5933 31.7194 26.0924C32.6484 25.5925 33.2837 24.9519 33.6252 24.1708C33.9658 23.3906 34.136 22.0685 34.136 20.2045V13.1028C34.136 12.0034 34.0136 11.313 33.7686 11.0357C33.4271 10.6549 32.9182 10.4645 32.2441 10.4645H31.573V10.4665ZM43.7071 19.3628V24.4989C43.7071 25.6081 43.8296 26.2975 44.0745 26.565C44.4071 26.9468 44.912 27.1372 45.5871 27.1372H46.2712V27.5981H38.6248V27.1372H39.298C40.0557 27.1372 40.5974 26.895 40.923 26.4088C41.0993 26.1422 41.1869 25.5036 41.1869 24.4989V13.1048C41.1869 11.9965 41.0684 11.3072 40.8304 11.0377C40.4869 10.6569 39.9751 10.4665 39.297 10.4665H38.6238V10.0046H45.1629C46.7591 10.0046 48.0177 10.1677 48.9387 10.4919C49.856 10.8143 50.6626 11.3827 51.2668 12.1323C51.8991 12.9027 52.2147 13.8157 52.2147 14.8702C52.2147 16.3065 51.7348 17.4744 50.7749 18.3737C49.815 19.2739 48.4578 19.7221 46.7053 19.7221C46.2751 19.7221 45.8111 19.6928 45.3123 19.6323C44.7733 19.5663 44.2377 19.4764 43.7071 19.3628ZM43.7071 18.6256C44.1691 18.7115 44.5784 18.7769 44.9349 18.8199C45.2913 18.8638 45.597 18.8843 45.849 18.8843C46.7551 18.8843 47.5367 18.5367 48.1949 17.8396C48.8531 17.1424 49.1817 16.2392 49.1817 15.1309C49.1817 14.3693 49.0254 13.6614 48.7107 13.0081C48.3981 12.3549 47.952 11.8647 47.3784 11.5405C46.8029 11.2154 46.1497 11.0533 45.4178 11.0533C44.9727 11.0533 44.4021 11.1353 43.7061 11.2994V18.6256H43.7071ZM58.8275 11.0103V17.9216H62.671C63.6947 17.9216 64.3787 17.7732 64.7233 17.4753C65.1823 17.0838 65.4382 16.3964 65.491 15.4082H65.961V21.4826H65.491C65.3665 20.6341 65.2421 20.0902 65.1196 19.8491C64.9603 19.5493 64.7004 19.314 64.3389 19.1421C63.9775 18.9703 63.4208 18.8843 62.671 18.8843H58.8275V24.6365C58.8275 25.4089 58.8613 25.8776 58.932 26.0455L59.3004 26.4439C59.4757 26.5435 59.8103 26.5914 60.3022 26.5914H63.3322C64.3419 26.5914 65.0758 26.524 65.5318 26.3873C65.9879 26.2506 66.427 25.984 66.8492 25.5837C67.3939 25.0574 67.9505 24.2616 68.523 23.1992H69.0777L67.5313 27.5971H53.7442V27.1362H54.3785C54.8007 27.1362 55.202 27.0356 55.5813 26.8355C55.8631 26.6968 56.0543 26.4879 56.1559 26.2076C56.2575 25.9293 56.3082 25.3591 56.3082 24.4969V13.1048C56.3082 11.9653 56.1927 11.2623 55.9647 10.9957C55.6471 10.6422 55.1183 10.4665 54.3795 10.4665H53.7452V10.0046H67.4994L67.6697 13.8586H67.115C66.9318 12.9476 66.7287 12.3217 66.5076 11.9819C66.2866 11.6411 65.958 11.3814 65.5238 11.2027C65.1753 11.0758 64.562 11.0113 63.6827 11.0113H58.8275V11.0103ZM87.9888 27.5981H83.1963L77.1193 19.3882C76.6732 19.4067 76.3107 19.4145 76.0299 19.4145L75.6625 19.4077L75.2562 19.3872V24.4979C75.2562 25.6071 75.3787 26.2965 75.6247 26.564C75.9573 26.9458 76.4561 27.1362 77.1223 27.1362H77.8193V27.5971H70.173V27.1362H70.8431C71.5959 27.1362 72.1346 26.8941 72.4602 26.4078C72.6444 26.1412 72.736 25.5026 72.736 24.4979V13.1048C72.736 11.9965 72.6135 11.3072 72.3686 11.0377C72.027 10.6569 71.5182 10.4665 70.8441 10.4665H70.174V10.0046H76.6961C78.597 10.0046 79.998 10.1413 80.9001 10.4128C81.7995 10.6837 82.5981 11.2071 83.1973 11.9184C83.8266 12.6508 84.1423 13.5227 84.1423 14.5343C84.1423 15.6162 83.7818 16.5555 83.0619 17.3513C82.341 18.1471 81.2257 18.7105 79.7152 19.0386L83.4353 24.08C84.2807 25.2468 85.0056 26.0221 85.614 26.4049C86.2204 26.7896 87.013 27.0327 87.9908 27.1372V27.5981H87.9888ZM75.2562 18.5924L75.6884 18.5992L75.9901 18.6051C77.6839 18.6051 78.9594 18.2389 79.8197 17.5076C80.6791 16.7743 81.1092 15.8418 81.1092 14.7091C81.1092 13.6018 80.7617 12.7025 80.0677 12.0092C79.3736 11.316 78.4556 10.9684 77.3125 10.9684C76.8066 10.9684 76.1206 11.067 75.2572 11.2623V18.5924H75.2562ZM98.7986 27.5981L91.8792 12.7953V24.5399C91.8792 25.6335 91.9997 26.315 92.2386 26.5865C92.5672 26.9546 93.089 27.1372 93.8 27.1372H94.4422V27.5981H88.1621V27.1372H88.8043C89.5691 27.1372 90.1107 26.9107 90.4324 26.4556C90.6265 26.1764 90.7261 25.5388 90.7261 24.5399V13.0628C90.7261 12.2758 90.6365 11.7075 90.4593 11.358C90.3328 11.1051 90.1058 10.8922 89.7712 10.7213C89.4386 10.5514 88.9019 10.4655 88.1631 10.4655V10.0046H93.2971L99.7635 23.7421L106.185 10.0046H111.227V10.4655H110.601C109.827 10.4655 109.281 10.693 108.96 11.148C108.764 11.4283 108.666 12.0659 108.666 13.0618V24.5389C108.666 25.6325 108.791 26.3141 109.04 26.5855C109.368 26.9536 109.89 27.1362 110.601 27.1362H111.227V27.5971H103.582V27.1362H104.222C104.998 27.1362 105.539 26.9097 105.852 26.4547C106.047 26.1754 106.146 25.5378 106.146 24.5389V12.7943L99.2268 27.5971H98.7986V27.5981ZM120.104 27.1372V27.5981H112.456V27.1372H113.091C113.829 27.1372 114.366 26.9253 114.703 26.5006C114.913 26.2232 115.019 25.5563 115.019 24.4989V13.1048C115.019 12.2123 114.961 11.6226 114.848 11.3365C114.758 11.1207 114.578 10.9332 114.305 10.778C113.934 10.5743 113.515 10.4671 113.09 10.4665H112.455V10.0046H120.103V10.4655H119.457C118.73 10.4655 118.201 10.6784 117.866 11.1021C117.648 11.3794 117.539 12.0473 117.539 13.1038V24.4979C117.539 25.3904 117.596 25.9801 117.711 26.2662C117.796 26.483 117.981 26.6695 118.261 26.8247C118.639 27.0327 119.037 27.1362 119.457 27.1362H120.104V27.1372Z" fill="#444957"/>
<path fill-rule="evenodd" clip-rule="evenodd" d="M134.956 9.62769L135.382 15.6601H134.956C134.413 13.8469 133.64 12.5433 132.632 11.7456C131.626 10.9488 130.418 10.5504 129.01 10.5504C127.829 10.5504 126.762 10.8453 125.809 11.438C124.856 12.0287 124.105 12.973 123.559 14.2677C123.01 15.5625 122.738 17.1736 122.738 19.0991C122.738 20.6878 122.997 22.0646 123.514 23.2304C124.033 24.3963 124.811 25.2888 125.85 25.9117C126.89 26.5327 128.076 26.8442 129.411 26.8442C130.57 26.8442 131.59 26.5991 132.478 26.1119C133.363 25.6227 134.337 24.6531 135.399 23.2002L135.809 23.4511C134.913 25.0163 133.867 26.1607 132.669 26.8872C131.475 27.6127 130.055 27.9749 128.412 27.9749C125.448 27.9749 123.153 26.897 121.525 24.741C120.312 23.1367 119.705 21.2492 119.705 19.0747C119.705 17.323 120.105 15.7158 120.903 14.2482C121.701 12.7826 122.799 11.645 124.198 10.8385C125.594 10.0319 127.124 9.62866 128.78 9.62866C130.068 9.62866 131.339 9.9382 132.592 10.5592C132.962 10.7496 133.224 10.8434 133.382 10.8434C133.496 10.8444 133.61 10.8233 133.716 10.7813C133.822 10.7392 133.919 10.677 134 10.5983C134.228 10.3659 134.389 10.0427 134.486 9.62866H134.956V9.62769ZM153.673 27.598H148.88L142.802 19.3882C142.356 19.4067 141.994 19.4145 141.714 19.4145L141.347 19.4077L140.94 19.3872V24.4979C140.94 25.6071 141.061 26.2965 141.308 26.564C141.64 26.9458 142.14 27.1362 142.805 27.1362H143.502V27.5971H135.856V27.1362H136.525C137.28 27.1362 137.819 26.894 138.143 26.4078C138.327 26.1412 138.419 25.5026 138.419 24.4979V13.1048C138.419 11.9965 138.297 11.3072 138.052 11.0377C137.709 10.6569 137.2 10.4664 136.525 10.4664H135.856V10.0046H142.379C144.279 10.0046 145.679 10.1413 146.582 10.4127C147.482 10.6831 148.281 11.2067 148.88 11.9184C149.51 12.6507 149.824 13.5227 149.824 14.5343C149.824 15.6162 149.465 16.5555 148.745 17.3513C148.023 18.1471 146.909 18.7105 145.398 19.0386L149.118 24.0799C149.963 25.2468 150.688 26.0221 151.297 26.4048C151.904 26.7896 152.695 27.0327 153.674 27.1372V27.598H153.673ZM140.94 18.5924L141.373 18.5992L141.672 18.6051C143.366 18.6051 144.644 18.2389 145.504 17.5075C146.363 16.7742 146.793 15.8417 146.793 14.7091C146.793 13.6018 146.445 12.7025 145.753 12.0092C145.059 11.3159 144.139 10.9683 142.997 10.9683C142.489 10.9683 141.805 11.067 140.941 11.2622V18.5924H140.94Z" fill="#444957"/>
<path fill-rule="evenodd" clip-rule="evenodd" d="M172.318 7.7012C172.769 7.7012 173.21 7.81447 173.637 8.03905C174.065 8.26461 174.399 8.5878 174.64 9.00767C174.879 9.42851 175 9.86693 175 10.3229C175 10.776 174.881 11.2125 174.646 11.6284C174.409 12.0444 174.079 12.3686 173.653 12.598C173.226 12.8294 172.781 12.9437 172.318 12.9437C171.855 12.9437 171.412 12.8285 170.986 12.598C170.568 12.3746 170.225 12.038 169.996 11.6284C169.765 11.2308 169.642 10.7809 169.641 10.3229C169.641 9.86693 169.761 9.42753 170.002 9.00767C170.233 8.59604 170.581 8.25939 171.004 8.03905C171.433 7.81447 171.87 7.7012 172.318 7.7012ZM172.318 7.91699C171.908 7.91699 171.508 8.0205 171.116 8.22848C170.725 8.43646 170.42 8.73232 170.2 9.11801C169.987 9.48514 169.874 9.90022 169.872 10.3229C169.872 10.7389 169.98 11.1373 170.196 11.5191C170.41 11.8999 170.714 12.1977 171.101 12.4105C171.49 12.6244 171.894 12.7308 172.318 12.7308C172.743 12.7308 173.149 12.6244 173.538 12.4105C173.927 12.1977 174.23 11.9008 174.446 11.5191C174.66 11.1373 174.769 10.7389 174.769 10.3229C174.769 9.90403 174.658 9.50273 174.44 9.11801C174.22 8.73232 173.916 8.43646 173.524 8.22848C173.133 8.0205 172.733 7.91699 172.318 7.91699ZM170.825 8.70693H172.287C172.653 8.70693 172.933 8.78797 173.126 8.95006C173.319 9.11215 173.414 9.30842 173.414 9.53788L173.22 10.0319C173.089 10.1745 172.875 10.2839 172.576 10.361L173.364 11.4585L173.619 11.729L173.817 11.7846V11.9038H173.125L172.028 10.4079H171.73V11.5513L171.834 11.729L172.169 11.7846V11.9038H170.777V11.7846L171.042 11.7417L171.152 11.6177L171.179 11.273V9.33771L171.167 9.01548L171.07 8.88366L170.825 8.83777V8.70693ZM171.729 10.2507C172.025 10.2507 172.241 10.2224 172.378 10.1667L172.693 9.92747L172.801 9.57889L172.589 9.07798C172.517 9.01033 172.431 8.95752 172.338 8.92265C172.244 8.88777 172.145 8.87154 172.045 8.87488L171.728 8.93444V10.2507H171.729Z" fill="#444957"/>
<path fill-rule="evenodd" clip-rule="evenodd" d="M151.961 18.8091C151.961 13.7385 156.154 9.62869 161.323 9.62869C162.553 9.62856 163.77 9.86593 164.906 10.3272C166.042 10.7886 167.074 11.4648 167.943 12.3173C168.813 13.1698 169.502 14.1819 169.973 15.2958C170.443 16.4097 170.685 17.6035 170.685 18.8091C170.685 21.2439 169.699 23.579 167.943 25.3007C166.187 27.0223 163.806 27.9896 161.323 27.9896C158.84 27.9896 156.459 27.0223 154.703 25.3007C152.948 23.579 151.961 21.2439 151.961 18.8091ZM169.903 30.5566H0.0467529V29.836H169.903V30.5566Z" fill="#444957"/>
</svg>
