<svg width="27" height="27" viewBox="0 0 27 27" fill="none" xmlns="http://www.w3.org/2000/svg">
<circle cx="13.5" cy="13.5" r="13.5" fill="#43380F"/>
<g clip-path="url(#clip0)">
<path d="M19.8948 8.95869C19.3928 9.17891 18.8578 9.32488 18.3001 9.39575C18.8739 9.05319 19.3118 8.51488 19.5176 7.86603C18.9827 8.18497 18.3921 8.41025 17.7626 8.53597C17.2547 7.99513 16.5308 7.66016 15.741 7.66016C14.2088 7.66016 12.9752 8.90385 12.9752 10.4285C12.9752 10.6479 12.9938 10.8588 13.0393 11.0596C10.7384 10.9474 8.70243 9.84463 7.33471 8.16472C7.09593 8.579 6.95587 9.05319 6.95587 9.56366C6.95587 10.5222 7.44946 11.3718 8.18522 11.8637C7.74056 11.8553 7.30434 11.7262 6.93478 11.5228C6.93478 11.5313 6.93478 11.5423 6.93478 11.5532C6.93478 12.8982 7.89412 14.0153 9.15215 14.2726C8.92687 14.3342 8.68134 14.3638 8.42653 14.3638C8.24934 14.3638 8.07046 14.3536 7.90256 14.3165C8.26115 15.4125 9.27872 16.2183 10.4887 16.2445C9.54703 16.9811 8.35143 17.4249 7.05712 17.4249C6.83015 17.4249 6.61246 17.4148 6.39478 17.3869C7.62075 18.1775 9.07369 18.6289 10.6405 18.6289C15.7334 18.6289 18.5178 14.4102 18.5178 10.7533C18.5178 10.631 18.5136 10.5129 18.5077 10.3956C19.0569 10.0058 19.5185 9.51894 19.8948 8.95869Z" fill="#FFC700"/>
</g>
<defs>
<clipPath id="clip0">
<rect width="13.5" height="13.5" fill="white" transform="translate(6.39478 6.39453)"/>
</clipPath>
</defs>
</svg>
