<svg width="28" height="27" viewBox="0 0 28 27" fill="none" xmlns="http://www.w3.org/2000/svg">
<circle cx="14.3158" cy="13.5" r="13.5" fill="#43380F"/>
<g clip-path="url(#clip0)">
<path fill-rule="evenodd" clip-rule="evenodd" d="M19.0284 8.76761C17.782 7.51978 16.1245 6.83227 14.3586 6.83154C10.7198 6.83154 7.75838 9.79289 7.75691 13.4326C7.75642 14.5962 8.06037 15.7319 8.63811 16.7331L7.70154 20.1539L11.2012 19.2359C12.1655 19.7619 13.2511 20.0391 14.3559 20.0394H14.3587C17.997 20.0394 20.9588 17.0778 20.9602 13.4379C20.9609 11.6739 20.2749 10.0154 19.0284 8.76761ZM14.3586 18.9245H14.3563C13.3718 18.9241 12.4062 18.6595 11.5636 18.1597L11.3633 18.0408L9.28658 18.5856L9.84089 16.5608L9.71039 16.3532C9.16111 15.4795 8.87107 14.4698 8.87156 13.4331C8.87269 10.4078 11.3342 7.94651 14.3608 7.94651C15.8264 7.947 17.2041 8.51847 18.24 9.55562C19.2759 10.5928 19.8461 11.9714 19.8456 13.4375C19.8443 16.463 17.383 18.9245 14.3586 18.9245ZM17.3683 14.8151C17.2034 14.7324 16.3924 14.3335 16.2412 14.2784C16.0901 14.2233 15.98 14.1959 15.8701 14.361C15.7601 14.5261 15.444 14.8977 15.3478 15.0077C15.2515 15.1178 15.1554 15.1316 14.9904 15.049C14.8254 14.9665 14.2939 14.7922 13.6638 14.2302C13.1735 13.7929 12.8425 13.2527 12.7462 13.0876C12.6501 12.9224 12.7454 12.8417 12.8186 12.751C12.9972 12.5293 13.176 12.2968 13.2309 12.1868C13.286 12.0767 13.2584 11.9803 13.2171 11.8978C13.176 11.8152 12.8461 11.0033 12.7087 10.6729C12.5746 10.3514 12.4388 10.3949 12.3375 10.3898C12.2413 10.385 12.1313 10.384 12.0213 10.384C11.9114 10.384 11.7326 10.4253 11.5814 10.5905C11.4302 10.7556 11.0042 11.1546 11.0042 11.9666C11.0042 12.7785 11.5952 13.5628 11.6777 13.6729C11.7601 13.783 12.8409 15.4491 14.4955 16.1636C14.8891 16.3337 15.1963 16.4351 15.4359 16.5111C15.8311 16.6366 16.1906 16.6189 16.4748 16.5765C16.7918 16.5291 17.4507 16.1774 17.5883 15.7921C17.7257 15.4068 17.7257 15.0766 17.6844 15.0077C17.6432 14.9389 17.5332 14.8977 17.3683 14.8151Z" fill="#FFC700"/>
</g>
<defs>
<clipPath id="clip0">
<rect width="14.2105" height="14.2105" fill="white" transform="translate(7.21057 6.39453)"/>
</clipPath>
</defs>
</svg>
